<svg width="223" height="221" viewBox="0 0 223 221" fill="none" xmlns="http://www.w3.org/2000/svg">
<path d="M119.223 213.075C118.962 213.167 118.823 213.321 118.716 213.506C118.793 213.352 118.854 213.198 118.931 213.044C118.931 212.737 119.331 212.475 119.085 212.152C118.931 211.952 118.716 212.075 118.562 212.213C117.855 212.86 117.132 213.506 116.44 214.183C116.194 214.414 116.102 214.752 116.333 215.06C116.594 215.383 116.932 215.245 117.194 215.029C117.563 214.722 117.886 214.368 118.224 214.029C118.424 213.921 118.547 213.783 118.654 213.614C118.562 213.829 118.531 214.06 118.5 214.306C118.254 214.937 117.978 215.568 117.763 216.23C117.624 216.63 117.609 217.091 118.07 217.291C118.623 217.522 118.885 217.045 119.054 216.645C119.238 216.199 119.331 215.722 119.454 215.26C119.454 214.599 119.976 214.014 119.669 213.321C119.515 213.244 119.361 213.167 119.223 213.091V213.075Z" fill="#3F0B01"/>
<path d="M175.064 198.056C174.603 197.61 174.157 197.148 173.68 196.702C173.403 196.456 173.219 195.84 172.788 196.133C172.435 196.379 172.773 196.871 172.927 197.241C172.958 197.364 172.988 197.472 173.034 197.595C172.896 197.441 172.742 197.333 172.481 197.472C172.173 197.625 172.127 197.979 172.22 198.287C172.312 198.595 172.266 198.903 172.389 199.195C172.496 199.826 172.589 200.472 172.727 201.088C172.819 201.472 173.111 201.719 173.542 201.642C173.942 201.565 173.988 201.195 173.942 200.872C173.865 200.318 173.726 199.78 173.619 199.226C173.496 198.949 173.496 198.656 173.434 198.364C173.557 198.503 173.696 198.626 173.895 198.687C174.018 198.78 174.141 198.887 174.28 198.98C174.649 199.241 175.064 199.58 175.448 199.133C175.863 198.656 175.387 198.349 175.079 198.041L175.064 198.056Z" fill="#3F0B01"/>
<path d="M171.943 196.995C171.789 196.764 171.512 196.594 171.389 196.902C171.005 197.902 170.575 198.903 170.436 199.98C170.405 200.272 170.482 200.565 170.805 200.657C171.174 200.765 171.42 200.534 171.559 200.211C171.805 199.657 171.912 199.057 171.943 198.456C172.296 197.964 172.204 197.472 171.943 196.979V196.995Z" fill="#3F0B01"/>
<path d="M120.745 212.721C120.699 212.506 120.699 212.183 120.392 212.183C120.099 212.183 120.069 212.49 120.007 212.706C119.946 212.89 119.93 213.106 119.9 213.291C119.792 213.629 119.669 213.952 119.9 214.291C120.007 214.722 120.069 215.168 120.222 215.568C120.376 215.937 120.638 216.322 121.13 216.107C121.545 215.922 121.499 215.491 121.345 215.168C121.007 214.383 120.899 213.552 120.745 212.737V212.721Z" fill="#3F0B01"/>
<path d="M107.6 212.506C107.569 212.244 107.692 211.859 107.338 211.782C107 211.706 106.939 212.106 106.785 212.321C106.708 212.552 106.616 212.783 106.539 213.029C106.493 212.89 106.416 212.737 106.293 212.583C106.062 212.398 105.909 212.444 105.755 212.567C105.847 212.398 105.939 212.229 106.032 212.059C106.139 211.413 105.924 211.305 105.401 211.659C104.802 212.075 104.202 212.46 103.618 212.89C103.218 213.183 102.542 213.491 102.895 214.091C103.264 214.706 103.818 214.214 104.264 213.952C104.371 213.891 104.463 213.814 104.571 213.752C104.786 213.675 104.971 213.552 105.125 213.429C105.032 213.706 104.955 213.983 104.848 214.245C104.617 214.722 104.356 215.183 104.171 215.66C104.033 216.014 104.048 216.414 104.463 216.599C104.894 216.784 105.186 216.537 105.34 216.184C105.632 215.568 105.863 214.922 106.108 214.275C106.231 214.152 106.324 214.045 106.401 213.921C106.401 214.106 106.462 214.306 106.554 214.506C106.585 214.629 106.6 214.737 106.647 214.86C106.8 215.306 106.923 215.922 107.569 215.737C108.246 215.553 107.938 214.999 107.861 214.522C107.754 213.845 107.692 213.167 107.615 212.49L107.6 212.506Z" fill="#3F0B01"/>
<path d="M104.079 206.812C101.911 207.258 100.066 206.474 97.9446 205.55C99.8818 204.935 101.404 204.212 102.695 203.057C106.078 200.057 105.217 195.302 100.989 193.701C97.6832 192.44 93.9165 193.363 91.5488 195.994C91.0414 196.548 90.6878 197.179 90.7031 197.949C90.7185 198.641 91.0106 199.195 91.7794 199.118C92.5635 199.026 93.0093 198.549 92.8556 197.672C92.5635 196.04 93.0247 195.194 94.5622 194.594C96.1612 193.978 97.7601 194.194 99.2976 194.809C101.773 195.779 103.095 197.779 102.911 200.134C102.726 202.38 101.035 203.935 98.4059 204.565C96.7454 204.966 95.3155 204.396 93.7935 203.996C91.5488 203.396 89.4424 203.673 87.6436 205.366C91.2105 203.935 94.1317 205.643 97.0836 207.212C94.7928 208.536 92.4866 209.859 90.1958 211.182C88.9504 211.89 87.6282 212.321 86.1523 212.059C85.1068 211.213 84.8608 210.305 85.445 209.474C85.7679 209.013 86.1676 208.843 86.6904 209.151C87.1516 209.413 87.413 209.782 87.2285 210.351C87.1516 210.582 86.7519 210.721 87.0286 211.105C87.2131 211.044 87.413 210.998 87.5821 210.921C88.3047 210.567 88.9966 210.105 88.7198 209.167C88.4277 208.212 87.5667 208.089 86.7365 208.228C85.6141 208.397 84.6763 208.951 84.0459 209.905C83.2464 211.105 83.7538 212.444 85.1529 212.875C86.183 213.183 87.1362 212.906 88.1048 212.567C91.5795 211.444 94.5161 209.32 97.591 207.474C99.0055 207.505 100.312 208.274 101.773 208.012C102.665 207.843 103.51 207.628 104.11 206.828L104.079 206.812Z" fill="#3F0B01"/>
<path d="M20.2411 146.66C22.7779 147.552 25.3916 148.091 28.0668 148.23C29.635 148.322 31.1725 148.076 32.218 146.691C32.6331 146.137 32.8944 146.552 33.2019 146.768C34.4012 147.645 35.6773 148.322 37.1532 148.522C39.7823 148.876 41.6426 146.675 40.797 144.136C40.0437 141.859 38.4139 140.52 36.0616 140.089C35.1699 139.92 34.3704 140.212 33.7093 140.812C33.1866 141.29 33.0636 141.843 33.6324 142.382C34.1552 142.874 34.724 142.874 35.2621 142.397C35.4159 142.274 35.4928 142.074 35.6311 141.92C36.4921 140.874 37.4146 140.905 38.2141 141.982C38.5831 142.474 38.8598 143.013 38.9982 143.613C39.2903 145.029 38.7983 146.398 37.7528 147.045C36.6612 147.737 35.5696 147.599 34.2782 146.645C33.3864 145.983 32.7407 145.106 32.1565 144.167C31.4646 143.075 30.5114 142.336 29.1277 142.136C29.1892 142.705 29.6043 142.782 29.8656 143.013C31.0802 144.09 31.0034 145.414 29.6965 146.398C28.9739 146.937 28.1437 147.045 27.2827 147.106C25.2379 147.214 23.2699 146.66 21.2866 146.321C16.2129 144.813 11.2623 142.951 6.51153 140.582C6.29629 140.474 6.00417 140.32 5.7428 140.705C5.89654 140.843 6.01954 141.013 6.17329 141.089C10.7088 143.336 15.3366 145.352 20.2411 146.645V146.66Z" fill="#3F0B01"/>
<path d="M19.9643 77.3518C19.8721 75.8746 20.5947 74.7666 21.3327 73.6433C21.7785 72.9662 22.209 72.2737 22.3781 71.4736C22.578 70.5041 22.578 69.5654 21.8246 68.7806C21.963 69.9655 21.4864 70.9196 20.9175 71.8737C20.5024 72.5661 20.0719 73.2432 19.7183 73.9664C19.1802 75.1052 19.211 76.2593 19.9797 77.3518H19.9643Z" fill="#3F0B01"/>
<path d="M45.3172 184.576C45.1173 184.422 44.9328 184.376 44.7637 184.422C45.025 184.361 45.3018 184.284 45.5632 184.13C46.0551 183.853 46.0551 183.561 45.4863 183.484C44.5023 183.361 43.4876 183.268 42.5036 183.314C41.781 183.345 41.6272 183.791 42.15 184.361C43.011 184.407 43.8873 184.592 44.7483 184.422C44.5792 184.469 44.4408 184.592 44.3024 184.776C43.7336 184.976 43.1493 185.146 42.5958 185.392C42.027 185.638 41.1353 185.869 41.5504 186.669C41.9655 187.469 42.6573 186.792 43.2262 186.577C43.8412 186.346 44.1487 185.684 44.7944 185.515C45.2095 185.33 45.6093 185.146 45.3172 184.561V184.576Z" fill="#3F0B01"/>
<path d="M45.7784 185.053C45.5785 185.238 45.1634 185.146 45.1634 185.561C44.8559 185.977 44.5177 186.392 44.2563 186.838C44.0257 187.238 43.8873 187.731 44.4254 187.992C44.9021 188.223 45.1173 187.792 45.3325 187.423C45.6708 186.823 46.0398 186.254 46.378 185.653C46.5471 185.361 47.0391 185.084 46.7009 184.746C46.378 184.422 46.0859 184.961 45.7784 185.053Z" fill="#3F0B01"/>
<path d="M10.1245 112.637C11.0623 113.145 12.0617 113.529 13.1687 113.606C12.4461 112.775 11.5082 112.283 10.555 111.821C10.309 111.698 9.98612 111.683 9.84775 112.037C9.7555 112.314 9.90924 112.514 10.1245 112.637Z" fill="#3F0B01"/>
<path d="M10.1553 105.266C11.0624 105.758 12.0002 106.174 13.0765 106.235C12.3692 105.42 11.5082 104.881 10.5704 104.435C10.309 104.312 10.0015 104.25 9.84779 104.589C9.67866 104.912 9.89391 105.127 10.1553 105.266Z" fill="#3F0B01"/>
<path d="M67.8564 189.054C67.8718 189.639 68.1947 189.947 68.7636 189.962C69.2863 189.962 69.6092 189.67 69.6553 189.147C69.7168 188.546 69.3785 188.223 68.8097 188.177C68.2254 188.131 67.9333 188.485 67.8564 189.054Z" fill="#3F0B01"/>
<path d="M19.0572 72.3968C19.1648 72.3045 19.2878 72.2122 19.3954 72.1198C19.1033 71.1196 18.4268 70.3656 17.7196 69.6116C17.5505 69.4269 17.3045 69.35 17.0739 69.55C16.7818 69.8116 16.9355 70.0732 17.12 70.2887C17.7504 70.9965 18.4115 71.7044 19.0572 72.3968Z" fill="#3F0B01"/>
<path fill-rule="evenodd" clip-rule="evenodd" d="M23.1315 114.653C22.3628 113.714 21.3942 113.083 20.2257 112.76L20.2718 112.698C19.3368 112.439 18.4018 112.185 17.4673 111.932L17.4671 111.932L17.4669 111.931L17.4668 111.931L17.4666 111.931L17.4665 111.931C15.5125 111.401 13.5606 110.87 11.6159 110.298C7.92596 109.221 4.52816 107.559 1.5301 105.127C1.48911 105.094 1.44742 105.06 1.40546 105.026C1.00675 104.705 0.583464 104.365 0.5 103.696C5.48995 107.787 11.5161 109.254 17.7442 110.77L17.8272 110.79L17.72 110.607C17.1323 109.607 16.6144 108.726 16.6434 107.666C16.6434 107.627 16.6431 107.587 16.6427 107.547C16.6391 107.111 16.635 106.621 17.0431 106.466C18.0986 106.063 17.8494 105.497 17.5534 104.824L17.5534 104.824C17.5217 104.752 17.4895 104.679 17.4582 104.604C16.628 102.573 16.8279 100.496 17.243 98.3874C17.6581 96.2946 18.0579 94.2172 18.0271 92.0321C18.0117 91.1396 18.0425 89.6469 19.4416 89.1545C19.9384 88.9888 19.8308 88.6902 19.6962 88.3167L19.6876 88.2928C19.4723 87.6772 19.2725 87.0463 19.1956 86.4154C19.1033 85.5537 19.1495 84.6919 20.0412 84.1841C20.1914 83.9808 20.3974 83.9654 20.6272 83.9482C20.7973 83.9355 20.9804 83.9218 21.1635 83.8302C20.6716 82.9685 20.4256 82.0144 20.5024 80.9988C20.6254 79.1676 21.1789 78.7367 22.9778 79.106C23.5048 79.1961 23.4084 78.9634 23.3088 78.7228C23.2893 78.6757 23.2696 78.6282 23.2545 78.5828C23.07 77.8597 22.8855 77.1211 22.701 76.3825L22.701 76.3823C22.3013 74.7512 22.7779 73.474 24.2231 72.5815C26.8667 72.0252 27.9548 73.863 29.0501 75.7129L29.1276 75.8438C30.3422 73.751 30.004 71.1658 28.405 69.7808C27.79 69.2576 27.1289 68.7652 26.3294 69.1807C25.5607 69.5654 25.5146 70.4118 25.4838 71.1965C25.4797 71.2794 25.5023 71.3724 25.525 71.4655C25.5864 71.7179 25.6481 71.9713 25.1763 72.0275C24.5921 70.9196 24.4845 69.7347 24.792 68.5344C25.161 67.0879 25.8374 66.7648 27.2673 67.2726C27.3864 67.3123 27.512 67.3392 27.6357 67.3658L27.6357 67.3658C27.7036 67.3803 27.7708 67.3947 27.8361 67.4111C27.8012 67.0766 27.7615 66.7404 27.7215 66.4032C27.6385 65.7011 27.5548 64.9942 27.5133 64.2873C27.421 62.9793 27.7593 61.8406 29.0815 61.2866C30.3576 60.748 31.5261 61.0712 32.5715 61.9329C34.1705 63.2563 35.0315 66.0723 34.3704 67.8881L34.3563 67.9257C34.1301 68.5303 33.8926 69.1653 33.0943 69.1653C32.5869 69.1653 32.264 68.8268 32.141 68.3651C31.9412 67.6111 32.2948 67.1956 32.9713 66.8417C33.8015 66.4108 33.9091 65.2875 33.3403 64.395C32.6484 63.3332 31.1109 62.7792 29.9271 63.1793C28.7432 63.5794 28.2205 64.4565 28.282 65.9492C28.282 66.0723 28.2897 66.1916 28.2974 66.3108C28.3051 66.4301 28.3128 66.5493 28.3128 66.6724C28.8662 68.2113 29.758 69.5346 30.7573 70.8272C36.323 77.9827 40.7816 85.7537 43.426 94.4788C43.5356 94.8296 43.5931 95.0138 43.5986 95.1995C43.6046 95.4048 43.5472 95.612 43.4261 96.0482L43.4261 96.0483L43.426 96.0484C40.7355 87.2925 36.2615 79.5369 30.619 72.3968C31.0494 74.4742 30.619 76.3823 29.758 78.2289C29.1276 79.5985 28.5895 80.9834 28.2513 82.4607C28.0668 83.2762 28.282 83.8148 28.8355 84.3996C32.8329 88.6775 36.446 93.2477 39.3518 98.3412C40.0458 99.5542 40.656 100.816 41.2672 102.08L41.2674 102.08L41.2674 102.08L41.2675 102.08L41.2675 102.08C41.5634 102.692 41.8594 103.304 42.1653 103.912C42.5343 104.389 42.7803 104.897 42.6727 105.62C42.1804 105.443 42.0405 105.079 41.9041 104.725L41.904 104.725L41.904 104.725C41.8743 104.648 41.8447 104.571 41.8117 104.496C38.5369 97.3256 33.8938 91.1088 28.5434 85.3998C27.2519 83.9995 25.8836 82.6915 24.3153 81.5989C24.2515 81.5543 24.1872 81.5082 24.1224 81.4616C23.5164 81.0264 22.8668 80.5599 22.1168 81.0603C21.2558 81.6451 21.3788 82.5992 21.5633 83.4917C21.5745 83.5435 21.5848 83.596 21.5951 83.6486C21.6551 83.9553 21.7159 84.2664 21.9784 84.4765C22.4888 84.5475 22.8816 84.8409 23.2652 85.1275L23.3621 85.1997C28.3128 88.8313 32.3717 93.3093 35.8156 98.3566C37.6298 100.711 39.1673 103.235 40.5664 105.835C40.4127 105.927 40.2744 106.02 40.1362 106.112L40.1361 106.112L40.136 106.112L40.136 106.112L40.1359 106.112L40.1359 106.112C38.5984 103.712 37.0609 101.296 35.5235 98.8798C33.2941 96.0022 31.0341 93.1554 28.405 90.6164C27.8054 90.0316 27.3134 89.77 26.4371 90.2009C25.5719 90.6393 24.6132 90.6718 23.6553 90.7042H23.6553C23.2683 90.7173 22.8816 90.7304 22.5011 90.7702C22.3218 90.7959 22.1424 90.7978 21.963 90.7997C21.8195 90.8012 21.676 90.8027 21.5325 90.8164C19.7491 90.9549 19.3647 91.4319 19.5646 93.2016C19.6635 93.3336 19.6351 93.494 19.6068 93.6535C19.5692 93.8658 19.5319 94.0766 19.7952 94.2172C26.1296 96.8947 31.5876 100.803 36.1692 105.928C36.3183 106.098 36.4601 106.276 36.5996 106.451C36.6614 106.529 36.7228 106.606 36.7842 106.682C39.198 109.251 41.3505 112.037 43.3645 114.93C43.2416 115.037 43.1032 115.145 42.9648 115.253L41.9203 113.944L41.9201 113.944L41.9199 113.944L41.9197 113.943L41.9194 113.943C40.1884 111.775 38.4502 109.597 36.7227 107.42C33.8938 104.45 30.9726 101.588 27.4518 99.4184C26.2833 98.7105 25.0841 98.0642 23.8234 97.4795C23.9859 97.8512 24.1681 98.2055 24.3485 98.5562L24.3486 98.5563L24.3486 98.5564C24.6461 99.1347 24.9388 99.7037 25.1302 100.326C25.4992 101.573 25.3454 102.681 24.3153 103.527C23.2699 104.404 22.1475 104.266 21.0252 103.666C19.9028 103.065 19.1187 102.081 18.2116 100.896C17.8734 102.65 17.9195 104.112 18.596 105.558C18.8266 106.066 19.2417 106.235 19.7183 106.389C21.2712 106.897 22.7625 107.513 24.0079 108.605C24.4076 108.959 24.792 109.313 24.9457 110.005C24.4627 109.953 24.1589 109.699 23.8728 109.46C23.7401 109.35 23.6111 109.242 23.4697 109.159C22.4396 108.574 21.348 108.159 20.2103 107.851C19.3186 107.605 18.4576 107.543 18.0579 108.574C17.7042 109.482 18.4269 111.021 19.3032 111.313C19.6608 111.439 20.0306 111.535 20.4011 111.63C20.6199 111.686 20.839 111.743 21.0559 111.806C26.6062 113.345 31.5876 115.93 36.0923 119.5C39.5516 121.839 42.5189 124.716 45.5016 127.64C45.0593 128.026 44.8156 127.775 44.6231 127.577L44.6226 127.577L44.5974 127.551L44.5791 127.532C41.7041 124.824 38.7214 122.224 35.585 119.808C33.0635 118.13 30.5113 116.499 27.7285 115.253C26.3294 114.622 24.8996 114.114 23.1469 113.575C23.3584 113.849 23.5543 114.093 23.7364 114.32L23.7364 114.32L23.7365 114.32C24.0971 114.77 24.4034 115.152 24.669 115.561C25.8836 117.392 25.7144 118.684 24.0694 120.115C23.7619 120.392 23.6542 120.531 23.9925 120.854C25.4992 122.316 26.0681 124.193 26.4217 126.178C26.4866 126.541 26.5507 126.905 26.6147 127.269C27.2784 131.036 27.9479 134.837 29.7426 138.612C29.3742 138.495 29.0484 138.387 28.7489 138.289L28.7476 138.288L28.7472 138.288C28.2225 138.116 27.7788 137.97 27.3288 137.843C26.3448 137.566 25.3301 137.55 24.3153 137.55C23.6389 137.55 23.0085 137.658 22.6549 138.32C22.3283 138.945 22.6442 139.478 22.9487 139.992L22.9493 139.993C22.9744 140.036 22.9993 140.078 23.0239 140.12C23.1286 140.309 23.2689 140.476 23.4158 140.651L23.4158 140.651L23.4159 140.651C23.4847 140.733 23.5549 140.816 23.6235 140.905C22.455 140.951 21.2097 139.735 20.8407 138.196C20.5253 136.908 21.3665 136.597 22.2127 136.284L22.2128 136.284C22.3568 136.231 22.5009 136.177 22.6395 136.119C22.0405 135.443 21.3063 135.003 20.5823 134.569L20.5822 134.569C20.1355 134.301 19.6926 134.036 19.2878 133.719C16.8586 132.21 14.4294 130.702 12.2462 128.84C11.662 128.456 11.1393 127.994 10.7703 127.394C10.2014 126.917 9.83242 126.286 9.55567 125.609C9.23281 124.855 9.23281 124.101 9.84779 123.47C10.432 122.87 11.1393 122.67 11.9541 122.916C12.7536 123.162 13.4301 123.547 13.999 124.162C14.8138 125.04 14.9676 126.194 14.3526 126.763C13.6915 127.379 12.7229 127.071 11.8619 125.948C12.0122 125.778 12.1682 125.827 12.3264 125.877C12.4272 125.909 12.5289 125.941 12.6306 125.917C13.1841 125.778 13.4455 125.424 13.4455 124.87C13.4608 124.286 13.1533 124.009 12.5691 123.947C11.1854 123.793 10.0169 125.163 11.0163 126.902L12.5384 128.563C13.472 129.243 14.4384 129.874 15.4048 130.505L15.405 130.505L15.4051 130.505C16.8259 131.433 18.247 132.361 19.5646 133.442C19.5831 133.423 19.6053 133.403 19.6282 133.382C19.7002 133.315 19.7798 133.242 19.7798 133.195C19.4723 131.657 19.9951 130.502 21.4557 129.81C21.1933 129.594 20.9367 129.391 20.6875 129.194L20.687 129.194L20.6869 129.194L20.6868 129.194C20.1184 128.745 19.5889 128.326 19.1187 127.856C18.3192 127.04 17.858 126.055 18.35 124.87C18.7958 123.793 19.8413 123.239 21.225 123.239C21.8554 123.255 22.4396 123.393 22.9931 123.639C23.3757 123.802 23.7495 123.982 24.187 124.192L24.1871 124.192C24.3298 124.261 24.4794 124.333 24.6382 124.409C24.423 123.131 23.9925 122.116 23.3006 121.208C22.9316 120.716 22.4089 120.608 21.8247 120.531C19.5031 120.223 17.2584 118.069 17.0278 115.976C16.9663 115.391 16.9663 114.791 17.5812 114.499C18.0425 114.268 18.5345 114.36 18.9035 114.776C19.2571 115.176 19.3032 115.607 19.0418 116.114C18.2577 117.623 18.8573 118.777 20.5486 119.038C21.7785 119.238 23.0085 118.684 23.5774 117.684C24.2077 116.561 23.8849 115.576 23.1315 114.653ZM26.8675 136.781C27.4825 136.981 27.6978 136.812 27.4672 136.15H27.4825C27.4185 135.967 27.354 135.784 27.2897 135.601L27.2891 135.599L27.289 135.599C26.9212 134.555 26.5556 133.517 26.2679 132.457C25.9451 131.287 25.1456 130.964 24.0847 130.964C22.9316 130.964 21.7939 131.718 21.5172 132.657C21.225 133.672 21.6863 134.642 22.9009 135.334C23.837 135.873 24.871 136.18 25.9014 136.486L25.9021 136.486C26.2253 136.582 26.5482 136.678 26.8675 136.781ZM24.5925 130.103L24.5924 130.103C23.5728 129.731 22.6175 129.383 21.6863 128.994C20.3179 128.425 19.7337 127.486 19.9797 126.425C20.2411 125.27 21.1789 124.532 22.4396 124.47C23.7619 124.424 24.8381 125.178 25.0995 126.455C25.3062 127.421 25.4614 128.395 25.6293 129.448C25.6862 129.805 25.7445 130.171 25.8067 130.549C25.3908 130.394 24.9868 130.247 24.5925 130.103ZM27.4518 74.982C26.6523 74.3819 25.7452 74.228 24.8381 74.7204H24.8227C23.931 75.1975 23.4082 76.0284 23.5466 77.0133C23.8849 79.2907 25.1917 80.968 27.1443 82.5068C27.2675 81.0936 27.6603 79.8848 28.0429 78.7076L28.0429 78.7075L28.0429 78.7074C28.1852 78.2695 28.3261 77.836 28.4511 77.398C28.7432 76.3823 28.2666 75.5668 27.4518 74.982ZM20.4409 86.7847C20.7177 86.0461 21.225 85.7537 21.9477 85.9538C23.2699 86.2923 24.3153 87.1079 25.3608 87.9388C25.8221 88.3081 25.4531 88.4928 25.1302 88.5697C24.2385 88.816 23.316 88.8929 22.6395 88.8929C20.5024 88.9698 19.8874 88.2774 20.4409 86.7847ZM19.6415 95.3251C19.2417 95.1097 19.1495 95.3713 19.1033 95.6945C18.9496 96.8486 18.7805 98.0027 18.5652 99.4338C18.5191 100.388 19.4108 101.742 20.5947 102.204C21.6248 102.588 22.5934 102.496 23.3621 101.634C24.1923 100.726 24.1462 99.4799 23.3467 98.1566C22.5969 96.9321 21.4194 96.2934 20.2379 95.6526C20.0385 95.5444 19.839 95.4362 19.6415 95.3251Z" fill="#3F0B01"/>
<path fill-rule="evenodd" clip-rule="evenodd" d="M60.3843 182.268C60.2921 181.006 59.4157 180.375 58.3241 179.975C57.5554 179.683 56.7405 179.637 55.9256 179.637C55.4029 179.637 55.2492 179.529 55.3875 178.929C55.7719 177.082 55.0185 175.99 53.1736 175.605C52.8169 175.532 52.4603 175.475 52.0842 175.415C51.828 175.374 51.5628 175.332 51.2825 175.282C51.4362 175.128 51.4977 175.066 51.5592 175.036C51.5978 175.014 51.6363 174.992 51.6752 174.969L51.6753 174.969L51.6753 174.969C51.776 174.91 51.8789 174.849 51.9897 174.805C58.9083 171.804 66.0422 170.219 73.6219 171.266C73.7132 171.277 73.8241 171.3 73.9385 171.323C74.267 171.388 74.6252 171.46 74.6366 171.312C74.6982 170.562 75.0883 170.621 75.4736 170.679C75.6657 170.708 75.8566 170.737 76.005 170.665C76.0578 170.643 76.1134 170.627 76.1686 170.611C76.3383 170.561 76.5042 170.513 76.5738 170.281C76.1633 169.93 75.6864 169.959 75.2176 169.988H75.2175H75.2175H75.2175C75.0894 169.996 74.9619 170.004 74.8365 170.004C74.1977 170.004 73.5574 170.017 72.9166 170.03H72.9166H72.9166H72.9165C71.4906 170.06 70.0619 170.09 68.6405 169.973C62.2754 169.404 55.941 169.742 49.6374 170.773C48.8533 170.896 48.3613 170.696 47.8386 170.158C45.6916 168.009 44.013 165.511 42.3358 163.016L42.3357 163.016C42.1153 162.688 41.8948 162.36 41.6733 162.033C40.5664 160.402 39.2903 158.97 37.4914 158.063C37.3377 157.924 37.1839 157.816 37.0148 157.724C37.4146 157.739 37.8297 157.755 38.2294 157.693C38.7214 157.616 38.9366 157.509 38.4908 157.078C37.2916 156.647 36.0462 156.57 34.7855 156.601C33.4786 156.631 32.2025 156.462 31.0187 155.877C29.5735 155.17 29.0661 154.185 29.4351 152.861C29.8041 151.538 31.2032 150.584 32.5869 150.722C33.6785 150.83 34.232 151.523 34.1551 152.692L34.1549 152.696C34.1396 152.987 34.1251 153.262 34.3089 153.508C34.724 154.031 35.2467 154.339 35.8771 153.939C36.5536 153.523 36.3845 152.908 36.0923 152.323C34.9392 149.968 30.5882 148.968 28.528 150.584C26.9444 151.83 26.929 153.877 28.4973 155.185C29.3317 155.874 30.3146 156.301 31.259 156.711L31.259 156.711C31.4108 156.777 31.5616 156.842 31.7106 156.908C30.6036 158.324 29.2352 158.74 27.5748 158.032C26.4063 157.57 25.2071 157.247 23.9771 157.047C23.7856 156.979 23.5936 156.913 23.4014 156.847C22.2356 156.445 21.0664 156.041 20.0104 155.354C18.5345 153.877 19.3801 152.492 20.4409 152.123C21.0252 151.923 21.5018 151.984 21.7324 152.615C21.963 153.246 21.7939 153.723 21.1174 153.969C21.0677 153.987 21.0127 153.99 20.9558 153.992C20.8194 153.997 20.6725 154.003 20.5639 154.231C21.0098 154.662 21.5787 154.831 22.1783 154.8C23.0393 154.754 23.5159 153.954 23.2237 153.138C22.8548 152.107 21.3327 151.246 19.9182 151.261C18.9342 151.261 18.1194 151.63 17.8272 152.6C17.4275 153.969 18.3039 154.8 19.2878 155.539C19.3493 155.585 19.4262 155.616 19.5031 155.647C20.6562 156.539 22.0092 156.985 23.3929 157.355C24.5613 157.816 25.7759 158.186 27.0213 158.355C28.7279 158.786 30.3883 159.217 31.4953 160.832C31.9719 161.54 32.9098 161.833 34.1859 161.74C33.9645 161.566 33.7365 161.408 33.5168 161.255C32.6686 160.665 31.9429 160.16 32.1872 159.17C32.4579 158.1 33.4555 157.972 34.3932 157.852C34.5206 157.836 34.6469 157.819 34.7701 157.801C35.0315 157.739 35.2929 157.709 35.5388 157.693C35.5132 157.709 35.4876 157.722 35.462 157.736L35.462 157.736C35.4107 157.763 35.3595 157.791 35.3082 157.832C35.4285 158.241 35.7653 158.34 36.0976 158.437C36.19 158.464 36.2821 158.491 36.3691 158.524C37.5683 159.001 38.337 159.909 39.198 161.017C38.9288 161.017 38.6944 161.013 38.4821 161.009C38.1123 161.003 37.8096 160.998 37.5068 161.017C36.9841 161.063 36.4613 161.125 35.954 161.263C34.601 161.648 33.6631 162.725 33.617 163.895C33.5709 165.003 34.355 166.034 35.7541 166.526C36.3772 166.741 37.0254 166.898 37.6864 167.058L37.6865 167.059L37.6867 167.059L37.6868 167.059C37.9226 167.116 38.16 167.173 38.3985 167.234C36.9533 169.696 37.4146 171.496 42.2115 172.512C42.1252 172.593 42.036 172.672 41.9471 172.751C41.3226 173.305 40.7065 173.852 41.1506 174.836C41.7348 176.097 43.6105 176.959 45.1173 176.698C45.1083 176.447 44.9334 176.384 44.7581 176.32C44.6317 176.275 44.5052 176.229 44.4408 176.113C43.672 175.82 43.0417 175.359 43.0724 174.482C43.1032 173.62 43.8565 173.312 44.533 173.051C47.8078 171.789 51.2518 171.389 54.6957 170.989C54.9059 170.963 55.1162 170.936 55.3265 170.909L55.3267 170.909L55.3269 170.909L55.3271 170.909C56.3935 170.772 57.4634 170.634 58.5547 170.712C60.1228 170.361 61.7018 170.481 63.2825 170.601C63.5771 170.624 63.8718 170.646 64.1665 170.665C63.6901 170.719 63.2099 170.777 62.7296 170.835L62.7294 170.835L62.7292 170.835L62.729 170.835C62.2485 170.892 61.7681 170.95 61.2914 171.004C57.9551 171.727 54.6188 172.466 51.4824 173.882C50.3111 174.414 49.1581 174.99 48.0042 175.566L48.004 175.566L48.004 175.566C47.3252 175.905 46.6461 176.244 45.9629 176.574C45.1357 177.034 44.3133 177.506 43.4908 177.978C38.4732 180.858 33.447 183.743 27.2519 183.822C27.5674 184.349 27.9053 184.346 28.2081 184.344C28.2595 184.344 28.3098 184.343 28.3589 184.345C29.6196 184.407 30.865 184.238 32.0949 184.007C36.2922 183.191 40.059 181.314 43.7028 179.175C44.5945 178.652 45.1634 178.744 45.9167 179.375C47.9592 181.061 49.756 182.979 51.5592 184.904L51.5593 184.904L51.7284 185.084C53.3735 186.838 55.2645 188.192 57.6784 188.623L57.7451 188.636L57.7873 188.644C58.4158 188.764 59.0802 188.891 59.9231 188.192C57.786 188.131 56.1716 187.408 54.6496 185.93C56.2331 185.854 57.5246 185.761 58.6777 185.084C59.7386 184.469 60.3997 183.576 60.2921 182.299L60.3843 182.268ZM38.214 166.48C37.1839 166.48 36.1538 165.941 35.8617 164.972C35.5389 163.91 36.0001 162.787 37.0302 162.171C38.1987 161.479 39.4286 161.463 40.1359 162.325C40.7862 163.102 41.3518 163.946 41.9207 164.795C42.1185 165.09 42.3167 165.386 42.5189 165.68C42.8111 166.126 42.5343 166.218 42.1346 166.249C41.2642 166.297 40.3939 166.354 39.2726 166.427C38.948 166.448 38.6023 166.471 38.2294 166.495L38.214 166.48ZM39.813 169.773C39.936 170.896 40.674 171.45 41.7195 171.666L41.7348 171.65C43.4591 172.004 45.1127 171.609 46.953 171.169L47.1928 171.112C46.8534 170.745 46.5233 170.395 46.2025 170.055L46.2024 170.055L46.2023 170.055C45.4334 169.241 44.7181 168.484 44.0564 167.68C43.2262 166.665 42.3191 166.834 41.3505 167.28C40.305 167.772 39.6746 168.573 39.813 169.773ZM46.6547 178.298C46.3472 178.052 46.1627 177.852 46.624 177.59C48.1153 176.744 49.6067 175.913 51.3901 176.02C52.6816 176.097 53.5272 176.975 53.5118 178.329C53.3888 179.314 52.7738 180.083 51.8052 180.56C50.9443 180.991 50.0987 181.068 49.2992 180.406L49.0677 180.219C48.266 179.571 47.4527 178.914 46.6394 178.283L46.6547 178.298ZM53.4042 184.638C54.3574 185.561 56.1255 185.453 57.3094 184.499C58.3395 183.684 58.647 182.514 58.1089 181.483C57.54 180.375 56.0486 179.883 54.6034 180.468C54.4865 180.514 54.3697 180.562 54.2527 180.609C53.1388 181.061 52.004 181.521 50.5291 181.591C50.8626 181.948 51.1723 182.285 51.4675 182.607C52.1525 183.353 52.7596 184.014 53.4042 184.638Z" fill="#3F0B01"/>
<path fill-rule="evenodd" clip-rule="evenodd" d="M213.007 134.333L213.007 134.333C213 134.131 212.993 133.927 212.993 133.719L212.932 133.626C214.008 134.596 214.346 136.981 213.593 138.073C213.224 138.612 212.701 138.766 212.101 138.643C211.864 138.593 211.627 138.518 211.36 138.434L211.36 138.434L211.36 138.434C211.212 138.387 211.056 138.338 210.887 138.289C210.947 138.472 211.007 138.654 211.067 138.834L211.067 138.834L211.068 138.835L211.068 138.835L211.068 138.836C211.441 139.953 211.794 141.01 211.794 142.136C211.794 144.336 210.026 145.644 207.935 144.952C205.69 144.213 203.891 140.92 204.506 138.627C204.66 138.043 204.845 137.396 205.598 137.319C206.09 137.273 206.459 137.581 206.613 138.027C206.828 138.658 206.705 139.212 206.059 139.581C205.398 139.966 205.321 140.612 205.46 141.274C205.706 142.428 207.212 143.305 208.642 143.136C209.918 142.982 210.81 142.059 210.81 140.782C210.795 138.904 209.78 137.489 208.504 136.258C205.26 133.134 202.369 129.702 199.71 126.071C198.064 123.809 196.465 121.531 195.205 119.023C193.775 116.838 192.714 114.483 191.807 112.067C191.876 112.029 191.949 111.994 192.022 111.96L192.022 111.96C192.095 111.925 192.168 111.89 192.237 111.852C192.783 112.952 193.333 114.057 193.883 115.161C194.432 116.265 194.982 117.369 195.528 118.469C198.818 123.87 202.646 128.856 207.059 133.38C207.169 133.491 207.286 133.595 207.405 133.701L207.405 133.701L207.406 133.701L207.406 133.701L207.406 133.701L207.406 133.701L207.406 133.701C207.469 133.757 207.533 133.814 207.597 133.872C207.76 133.927 207.887 134.042 208.01 134.153L208.058 134.196C207.966 134.011 207.904 133.811 207.904 133.58C207.151 131.503 207.489 129.425 207.966 127.363C208.082 126.851 208.203 126.339 208.324 125.827C208.983 123.035 209.642 120.243 209.642 117.33C209.657 116.73 209.503 116.376 209.042 116.007C203.692 111.837 198.91 107.097 194.82 101.65C193.981 100.53 192.98 99.548 191.977 98.565C191.823 98.4137 191.669 98.2623 191.515 98.1104C191.455 98.0536 191.392 97.9994 191.329 97.9453C191.084 97.7354 190.841 97.5265 190.792 97.1717L190.757 97.1446C190.492 96.939 190.23 96.7362 190.377 96.2792C190.777 96.2946 191.007 96.4792 191.1 96.8486C191.209 96.8932 191.283 97.0193 191.357 97.1461C191.513 97.4127 191.671 97.6822 192.161 97.2025C192.441 96.9213 192.709 97.3721 192.883 97.6633C192.899 97.6909 192.915 97.7171 192.929 97.7411C196.266 102.942 201.155 106.389 206.336 109.467C207.255 110.016 208.248 110.449 209.237 110.879L209.238 110.88C209.439 110.968 209.641 111.055 209.841 111.144C209.904 111.173 209.968 111.207 210.034 111.241C210.319 111.393 210.629 111.557 210.979 111.344C209.165 107.451 209.211 107.02 211.625 105.743C211.43 105.45 211.215 105.17 211.001 104.891C210.609 104.379 210.218 103.868 209.949 103.281C209.457 102.173 209.257 101.08 210.149 100.095C211.041 99.0952 212.194 99.0798 213.393 99.4491C214.647 99.8527 215.583 100.75 216.636 101.76L216.729 101.85C216.745 100.434 216.545 99.2953 216.037 98.2335C215.469 97.0178 214.638 96.2792 213.132 96.1099C209.165 95.6791 205.367 94.6019 201.785 92.7861C199.294 91.8166 196.988 90.4625 194.759 89.0006C192.832 87.7327 190.94 86.4056 189.052 85.0816C188.787 84.8952 188.521 84.7088 188.255 84.5227C188.198 84.482 188.14 84.4417 188.082 84.4013L188.081 84.4011C187.654 84.1054 187.213 83.8004 187.01 83.2454C187.37 83.0267 187.622 83.2275 187.848 83.4071L187.848 83.4072C187.893 83.4424 187.936 83.4768 187.979 83.507C192.422 86.8463 197.019 89.9239 202.093 92.2321C202.359 92.3257 202.625 92.42 202.891 92.5144L202.893 92.5152L202.895 92.5159C205.256 93.3529 207.635 94.1964 210.41 94.5557C210.204 94.3397 210.015 94.1471 209.841 93.9691C209.468 93.5891 209.16 93.2753 208.888 92.94C207.689 91.4781 207.766 90.2932 209.18 89.0468C209.642 88.6313 209.549 88.4466 209.134 88.1543C208.458 87.6772 207.904 87.0925 207.443 86.4154C206.782 85.4306 206.551 84.4149 207.182 83.3378C207.75 82.3837 209.011 81.9221 210.272 82.1221C211.267 82.2861 212.11 82.7713 213.04 83.3059C213.331 83.4735 213.631 83.6459 213.946 83.8148C213.608 82.1991 213.101 80.8757 212.055 79.7985C211.84 79.5677 211.609 79.3676 211.21 79.4907C209.534 80.0139 208.119 79.3522 206.782 78.4443C206.725 78.4044 206.67 78.3637 206.616 78.3243L206.616 78.3243L206.616 78.3242L206.616 78.3242L206.616 78.3241C206.197 78.0142 205.886 77.7845 205.49 78.6444C205.014 79.6754 203.907 79.9986 202.815 80.0293C200.939 80.0755 199.141 79.6446 197.419 78.8752C194.82 78.0596 192.499 76.6747 190.223 75.1975C188.747 74.2434 187.271 73.2739 185.888 71.9352C186.579 71.6701 186.989 71.9968 187.346 72.2817L187.394 72.3199C190.531 74.8589 193.929 76.9055 197.695 78.3674C198.085 78.4214 198.467 78.5127 198.85 78.6041C199.449 78.7473 200.049 78.8906 200.678 78.8906C201.939 78.906 203.138 78.7521 203.799 77.4903C204.445 76.2746 203.722 75.4283 202.569 74.4588C203.938 74.5973 204.629 75.1821 205.244 75.9053L205.362 76.0442C205.935 76.7188 206.491 77.3739 207.182 77.9212C207.935 78.5059 208.704 78.8598 209.642 78.3674C210.656 77.8288 211.271 76.9671 211.194 75.8284C211.102 74.4127 210.549 73.1508 209.365 72.2583C208.734 71.7967 208.15 71.5505 207.258 71.7967C205.291 72.3353 203.507 71.7351 201.954 70.4425C201.616 70.1501 201.355 69.7962 201.185 69.3654C201.001 68.8883 200.924 68.4113 201.37 68.0266C201.708 67.7342 202.108 67.7034 202.508 67.8881C203 68.1035 203.246 68.4728 203.246 69.0268C203.2 70.7349 203.938 71.3043 205.598 70.8888C206.382 70.7041 207.028 70.3194 207.504 69.6731C208.504 68.3651 208.104 66.934 206.582 66.3339C205.66 65.98 204.691 65.9338 203.707 65.9646C202.246 66.0107 200.893 65.703 199.633 64.9643C198.941 64.5643 198.418 64.0257 198.126 63.2717C197.941 62.8254 197.895 62.4099 198.28 62.0406C198.618 61.7175 199.018 61.7328 199.417 61.8559C199.879 62.0098 200.201 62.3484 200.14 62.8562C200.048 63.7179 200.032 64.5335 201.032 64.8566C202.139 65.2106 203.123 64.8412 203.984 64.1642C204.722 63.5794 205.137 62.7792 204.952 61.8098C204.799 60.9019 204.091 60.4864 203.292 60.2248C202.119 59.8411 200.901 59.7825 199.68 59.7236C199.285 59.7046 198.89 59.6855 198.495 59.6554L198.439 59.6517C197.55 59.5917 196.633 59.5298 195.804 58.6706C196.382 58.6224 196.92 58.6728 197.436 58.7212C198.073 58.7809 198.676 58.8374 199.279 58.7014C199.554 58.641 199.834 58.6011 200.114 58.5613L200.114 58.5613L200.114 58.5613L200.114 58.5613L200.114 58.5613L200.114 58.5613L200.115 58.5613C200.477 58.5097 200.839 58.4583 201.185 58.3628C202.923 57.8858 203.153 56.824 201.847 55.5622C201.677 55.3929 201.493 55.2391 201.309 55.0852L201.308 55.0852C200.816 54.562 200.248 54.7005 199.663 54.9005C192.022 57.4396 184.243 57.378 176.386 56.147C176.301 56.1363 176.223 56.0961 176.147 56.057C176.114 56.0397 176.081 56.0226 176.048 56.0085C173.634 55.7161 171.266 55.2544 168.929 54.5928L169.022 54.1003C170.313 54.3465 171.608 54.5966 172.904 54.8466C174.199 55.0967 175.494 55.3468 176.786 55.593H176.863C177.016 55.6237 177.186 55.6545 177.355 55.6853L177.355 55.6853C178.049 55.7398 178.743 55.8018 179.438 55.8639L179.438 55.8639C181.881 56.0822 184.329 56.301 186.795 56.1931C189.547 56.07 192.268 55.7776 195.159 54.9159C194.884 54.8086 194.627 54.7112 194.384 54.619L194.384 54.619C193.825 54.407 193.339 54.2225 192.868 54.008C191.607 53.4386 190.715 52.5307 190.715 51.0535C190.731 49.7609 191.761 48.5452 193.268 48.1297C195.205 47.5912 197.05 47.8989 198.679 49.1146C199.018 49.3762 199.294 49.7609 199.525 50.1302C199.786 50.5303 199.817 50.9919 199.494 51.3766C199.218 51.6998 198.849 51.8844 198.418 51.7459C197.926 51.6075 197.449 51.3151 197.496 50.7611C197.603 49.5147 197.065 48.8068 195.85 48.6837C194.682 48.5606 193.221 49.6532 192.883 50.8073C192.545 51.9922 192.991 53.1463 194.067 53.7156C195.343 54.3927 196.711 54.5158 198.08 54.1311C199.454 53.7433 200.829 53.3389 202.203 52.9345C203.12 52.6649 204.036 52.3953 204.952 52.1306C205.236 52.0549 205.526 51.9966 205.818 51.9379C206 51.9012 206.183 51.8643 206.367 51.8229C206 51.3262 205.472 51.2271 204.946 51.1282C204.657 51.0739 204.368 51.0196 204.107 50.8996C204.024 50.8627 203.92 50.8424 203.816 50.822C203.574 50.7746 203.332 50.7273 203.353 50.4687C203.391 50.0574 203.751 50.0903 204.05 50.1177C204.12 50.1241 204.187 50.1302 204.245 50.1302C204.922 50.1148 205.613 50.1456 206.29 50.2379C207.028 50.3456 207.458 50.7457 207.197 51.5767C210.626 50.7149 214.085 50.2533 217.621 50.8534C217.685 50.8534 217.749 50.8521 217.813 50.8507C218.182 50.843 218.552 50.8352 218.866 51.0843H218.882C219.281 51.0689 219.666 51.115 219.973 51.5613C219.225 51.8862 218.581 51.6665 217.945 51.4497C217.888 51.4303 217.832 51.411 217.775 51.392C212.455 51.0064 207.478 52.5363 202.5 54.0666L201.939 54.2388C201.895 54.2541 201.849 54.2669 201.803 54.2796C201.573 54.343 201.357 54.4027 201.601 54.762C202.923 54.9621 203.753 55.8546 204.383 56.9164C204.952 57.855 204.645 58.3936 203.123 59.4092C203.4 59.5495 203.683 59.6777 203.966 59.8053C204.955 60.2516 205.93 60.6918 206.551 61.6251C207.274 62.7023 207.059 63.6717 205.721 65.2875C205.99 65.4118 206.261 65.5292 206.531 65.646L206.531 65.646L206.531 65.646L206.531 65.6461L206.531 65.6461L206.531 65.6461L206.531 65.6461C207.062 65.8763 207.589 66.1045 208.089 66.3801C209.78 67.3033 210.779 68.8883 209.242 70.7503C208.851 71.2332 209.134 71.373 209.426 71.5169C209.478 71.5427 209.531 71.5686 209.58 71.5966C211.179 72.5353 212.332 73.8279 212.855 75.6437C213.132 76.6132 213.162 77.5518 212.563 78.429C212.548 78.4513 212.533 78.4732 212.518 78.4948C212.321 78.7866 212.161 79.0227 212.547 79.3522C214.961 81.445 215.592 84.3226 215.914 87.3079C216.237 90.2932 216.652 93.2631 217.252 96.2023C217.271 96.2885 217.289 96.3751 217.307 96.4617C217.421 97.0082 217.535 97.5552 217.867 98.0334C217.99 98.1873 218.144 98.3874 217.913 98.5412C217.729 98.6643 217.529 98.5412 217.375 98.3874L217.114 98.6182C218.356 101.008 218.217 103.538 218.077 106.069L218.077 106.071C218.063 106.326 218.049 106.581 218.036 106.835L218.008 107.429C217.862 110.459 217.717 113.466 218.005 116.515C218.082 117.33 218.036 118.438 217.698 119.361C217.39 120.223 216.714 120.331 215.945 120.285C215.928 120.288 215.911 120.292 215.893 120.295C215.875 120.298 215.858 120.301 215.84 120.305C215.658 120.337 215.482 120.368 215.392 120.562C215.486 120.737 215.586 120.91 215.685 121.082L215.685 121.083C215.907 121.469 216.129 121.855 216.299 122.27C217.283 124.593 216.545 126.009 214.023 126.517C214.118 127.029 214.389 127.442 214.658 127.854C214.825 128.109 214.991 128.363 215.115 128.64C215.822 130.256 215.684 131.595 214.669 132.426C213.639 133.257 212.117 133.149 210.749 132.149C210.305 131.833 209.95 131.43 209.575 131.002L209.575 131.002L209.575 131.002C209.364 130.762 209.147 130.515 208.904 130.272C208.442 131.841 208.581 133.241 209.15 134.626C209.319 135.596 210.61 136.75 211.609 136.827C212.563 136.904 212.901 136.273 212.993 135.488C213.034 135.111 213.021 134.728 213.007 134.333V134.333ZM209.549 83.9533C208.796 84.4919 208.412 85.2305 208.611 86.1692C208.857 87.3695 209.718 88.0465 210.825 88.3389C210.908 88.3606 210.991 88.382 211.073 88.4035C212.283 88.7177 213.499 89.0338 214.823 89.9701C214.757 89.4342 214.705 88.9298 214.655 88.4483L214.655 88.4482L214.655 88.4481L214.655 88.448L214.655 88.448L214.655 88.4478L214.655 88.4478C214.552 87.4639 214.46 86.5753 214.285 85.7075C213.9 83.8456 211.087 82.8454 209.549 83.9533ZM215.192 95.4482C215.062 95.4231 214.932 95.3984 214.802 95.3738L214.802 95.3738C213.499 95.1269 212.19 94.8789 211.071 94.1095C210.164 93.4939 209.58 92.7091 209.918 91.5396C210.21 90.524 211.271 89.8316 212.47 89.847C213.962 89.847 214.9 90.6317 215.176 92.109L215.176 92.1091L215.176 92.1091C215.346 92.9862 215.515 93.8633 215.653 94.7404C215.656 94.7643 215.66 94.7889 215.664 94.8139L215.671 94.8541C215.723 95.175 215.783 95.5426 215.207 95.4328L215.192 95.4482ZM210.733 123.485C211.456 124.578 213.378 125.024 214.423 124.347C215.638 123.547 215.807 122.239 214.807 120.854C213.823 119.5 212.501 118.515 210.933 117.576C210.795 119.315 210.672 120.869 210.549 122.439C210.518 122.793 210.503 123.147 210.733 123.485ZM211.071 102.85C211.194 101.865 211.809 101.265 212.732 100.973C214.654 100.372 216.944 102.25 216.775 104.25C216.712 104.927 216.67 105.604 216.625 106.34L216.625 106.34C216.592 106.859 216.559 107.407 216.514 108.005C215.33 106.759 214.1 106.189 212.839 105.635C211.686 105.127 210.933 103.881 211.071 102.85ZM214.162 107.42C212.993 107.205 211.84 107.728 211.379 108.667V108.682C210.902 109.651 211.225 110.682 212.255 111.56C213.359 112.49 214.668 112.967 216.157 113.51L216.422 113.606C216.422 113.127 216.425 112.667 216.429 112.218V112.217C216.436 111.353 216.442 110.533 216.422 109.713C216.376 108.513 215.515 107.666 214.162 107.42ZM205.982 112.36C204.245 110.898 202.554 109.405 201.047 107.697C200.924 107.581 200.788 107.477 200.65 107.371C200.256 107.069 199.846 106.754 199.663 106.128C200.494 106.374 201.032 106.866 201.539 107.389C205.829 110.606 210.549 112.914 215.668 114.468C216.33 114.668 216.837 116.899 216.453 117.761C216.099 118.561 215.315 118.73 214.162 118.176C211.294 116.813 208.895 114.795 206.502 112.782C206.329 112.636 206.156 112.49 205.982 112.344V112.36ZM209.877 125.549C209.677 126.38 209.488 127.165 209.319 127.963L209.303 127.979C208.996 129.441 209.534 130.41 210.887 130.995C212.04 131.487 213.331 131.195 213.946 130.287C214.561 129.379 214.377 128.179 213.331 127.102C212.636 126.384 211.9 125.706 211.112 124.981C210.819 124.711 210.519 124.435 210.21 124.147C210.097 124.634 209.985 125.098 209.877 125.549Z" fill="#3F0B01"/>
<path d="M220.066 123.716C219.943 122.916 219.804 122.07 218.912 121.562C219.973 123.716 219.097 125.609 218.251 127.486C217.698 128.748 217.021 129.948 216.591 131.256C216.114 132.734 216.007 134.18 216.637 135.627C216.76 136.104 216.821 136.627 217.636 136.842C217.129 135.642 217.037 134.549 217.144 133.426C217.621 131.703 218.451 130.118 219.22 128.517C219.958 126.994 220.342 125.394 220.081 123.701L220.066 123.716Z" fill="#3F0B01"/>
<path d="M210.549 161.956C210.549 161.232 210.395 160.555 210.118 159.909C209.734 158.401 209.303 156.893 208.95 155.37C208.688 154.246 208.166 153.169 208.181 151.969C209.887 149.691 210.21 147.091 208.95 145.829C208.857 148.814 207.904 149.676 206.474 151.369C206.121 151.046 206.259 150.615 206.213 150.23C206.013 148.553 205.567 146.968 204.568 145.583C202.554 142.767 199.11 142.413 196.558 144.736C193.621 147.414 193.237 152.769 195.758 155.862C196.096 156.278 196.481 156.647 197.004 156.785C197.48 156.924 197.972 156.97 198.357 156.539C198.649 156.201 198.695 155.8 198.51 155.4C198.295 154.908 197.911 154.585 197.373 154.662C195.85 154.908 195.358 153.877 195.036 152.754C194.221 149.861 196.85 145.829 199.832 145.352C202.262 144.967 204.506 146.152 205.167 148.353C205.782 150.399 205.752 152.43 204.46 154.277C203.369 155.847 202.631 157.539 202.846 159.509C202.923 160.263 202.877 161.109 203.876 161.879C203.123 159.047 204.414 157.093 205.829 155.2C206.382 154.462 206.905 153.692 207.428 152.954C207.873 153.138 207.873 153.569 207.981 153.954C208.611 156.139 209.242 158.309 209.857 160.478C210.18 161.602 210.087 162.741 210.118 163.879C209.995 164.141 209.903 164.402 209.764 164.649C209.38 165.31 208.796 165.649 208.058 165.48C207.274 165.295 206.628 164.879 206.736 163.895C207.428 163.094 208.135 162.787 208.919 164.202C208.965 162.879 208.888 161.94 207.72 161.694C206.874 161.509 206.274 162.263 206.136 163.571C206.136 163.679 206.182 163.802 206.198 163.91C206.136 164.356 206.244 164.787 206.397 165.218C206.905 166.572 207.797 167.249 208.888 167.08C209.857 166.941 210.579 166.003 210.656 164.633C210.702 163.756 210.61 162.864 210.595 161.971L210.549 161.956Z" fill="#3F0B01"/>
<path d="M204.276 169.619C203.292 168.603 202.354 167.572 202.062 165.987C201.508 166.526 201.662 166.926 201.708 167.326C201.893 168.757 202.692 169.865 203.599 170.896C203.845 171.173 204.076 171.727 204.506 171.481C204.937 171.235 204.722 170.681 204.614 170.265C204.553 170.035 204.445 169.804 204.276 169.634V169.619Z" fill="#3F0B01"/>
<path d="M205.967 169.619C206.459 167.049 203.43 166.357 203.384 164.156C202.8 166.003 203.999 168.419 205.967 169.619Z" fill="#3F0B01"/>
<path d="M219.681 74.3203C219.005 74.3203 218.313 74.4588 217.636 74.5358C217.252 74.6743 216.499 74.3357 216.606 75.1205C216.637 75.3052 216.714 75.4283 216.806 75.5206C216.668 75.5052 216.545 75.4898 216.406 75.5052C216.16 75.5822 215.791 75.3667 215.714 75.7668C215.653 76.0592 215.96 76.1361 216.145 76.2592C216.591 76.5362 217.021 76.8132 217.483 77.0594C218.051 77.3518 218.774 78.1828 219.235 77.4595C219.804 76.5516 218.574 76.4593 218.097 76.0284C217.944 75.9207 217.79 75.8438 217.621 75.7668C217.698 75.7668 217.775 75.7668 217.851 75.7668C218.282 75.7053 218.697 75.5514 219.128 75.7668C219.327 75.7668 219.527 75.7668 219.727 75.7668C220.265 75.7668 220.926 75.7514 220.911 75.059C220.896 74.3819 220.188 74.3665 219.681 74.3665V74.3203Z" fill="#3F0B01"/>
<path d="M218.205 146.983C217.713 146.583 217.16 146.244 216.637 145.875C216.499 145.706 216.345 145.567 216.191 145.46C216.499 145.552 216.837 145.567 217.175 145.583C217.452 145.567 217.744 145.583 218.005 145.521C218.344 145.444 218.605 145.244 218.543 144.844C218.497 144.521 218.221 144.367 217.928 144.367C216.96 144.367 216.007 144.198 215.069 143.967C214.884 143.921 214.623 143.89 214.577 144.152C214.561 144.275 214.669 144.444 214.777 144.536C214.961 144.69 215.176 144.813 215.376 144.936C215.484 145.075 215.607 145.183 215.745 145.275C215.561 145.244 215.376 145.229 215.161 145.306C214.684 145.737 215.422 145.829 215.392 146.137C215.576 146.506 215.791 146.845 216.16 147.06C216.56 147.383 216.944 147.722 217.36 148.029C217.729 148.291 218.174 148.568 218.528 148.106C218.866 147.66 218.528 147.26 218.19 146.968L218.205 146.983Z" fill="#3F0B01"/>
<path fill-rule="evenodd" clip-rule="evenodd" d="M194.812 177.971L194.812 177.971L194.728 177.913C194.559 177.805 194.344 177.682 194.205 177.913C194.144 178.006 194.205 178.221 194.251 178.344C194.328 178.522 194.445 178.689 194.562 178.854C194.587 178.89 194.612 178.925 194.636 178.96C194.682 179.129 194.743 179.267 194.836 179.375C194.697 179.344 194.513 179.344 194.298 179.421C194.259 179.429 194.225 179.437 194.19 179.444C194.155 179.452 194.121 179.46 194.082 179.467C194.036 179.591 194.021 179.698 194.021 179.821C193.975 179.698 193.929 179.575 193.867 179.452C193.793 179.383 193.753 179.273 193.714 179.165C193.641 178.96 193.569 178.761 193.267 178.852C193.043 178.927 193.056 179.136 193.07 179.344C193.076 179.435 193.082 179.526 193.068 179.606C193.022 179.882 193.026 180.166 193.03 180.45C193.038 181.036 193.047 181.621 192.622 182.13C192.565 182.009 192.51 181.887 192.454 181.764C192.361 181.557 192.267 181.348 192.16 181.145C190.946 178.99 189.731 176.836 188.532 174.682C187.963 173.666 187.733 172.558 187.871 171.389C188.04 169.927 188.87 169.019 190.1 168.896C191.499 168.773 192.883 169.696 193.267 171.035C193.56 172.02 193.098 173.035 192.145 173.235C191.469 173.374 190.977 173.605 190.946 174.343C190.931 174.866 191.161 175.328 191.684 175.482C192.391 175.697 192.822 175.22 193.191 174.712C194.497 172.974 194.328 169.711 192.837 168.003C192.007 167.049 190.977 166.541 189.716 166.834C188.471 167.126 187.886 168.065 187.533 169.219C187.382 169.717 187.328 170.235 187.274 170.756C187.235 171.137 187.196 171.519 187.118 171.896C185.903 169.881 185.042 167.742 184.366 165.541C182.597 159.832 182.152 153.939 181.982 148.014C181.979 147.899 181.985 147.781 181.99 147.661C182.011 147.201 182.034 146.708 181.583 146.244C181.349 147.132 181.391 147.94 181.431 148.728C181.443 148.979 181.456 149.227 181.46 149.476C181.613 159.094 183.182 168.357 188.348 176.713C188.547 177.036 188.686 177.344 188.501 177.729C188.475 177.776 188.448 177.823 188.421 177.871C188.351 177.994 188.28 178.119 188.225 178.252C187.902 178.975 187.517 179.729 186.656 179.775C185.765 179.832 185.395 179.12 185.042 178.443C185.011 178.384 184.981 178.325 184.95 178.267C184.858 178.103 184.793 177.925 184.728 177.747C184.695 177.658 184.663 177.57 184.627 177.482C184.089 176.282 183.92 174.974 183.751 173.42C182.992 174.428 183.137 175.336 183.274 176.201C183.29 176.301 183.306 176.399 183.32 176.498C183.385 176.943 183.474 177.386 183.564 177.828L183.564 177.829C183.81 179.054 184.056 180.279 183.797 181.545C183.551 182.73 182.751 183.376 181.675 183.299C180.337 183.207 178.923 181.806 178.831 180.406C178.754 179.237 179.369 178.713 180.522 178.698C181.029 178.698 181.291 178.283 181.398 177.821C181.506 177.344 181.367 176.928 180.952 176.651C180.507 176.359 180.091 176.544 179.707 176.79C179.138 177.159 178.8 177.698 178.539 178.313C177.908 179.852 178.016 181.391 178.4 182.961L178.414 183.019C178.656 184.016 178.901 185.028 178.585 186.069C178.2 187.346 177.247 187.869 175.956 187.515C175.079 187.269 174.48 186.684 174.049 185.93C173.188 184.392 173.588 183.468 175.294 183.068C175.848 182.945 176.125 182.591 176.232 182.083C176.325 181.653 176.171 181.268 175.817 181.022C175.341 180.698 174.895 180.883 174.48 181.191C174.049 181.514 173.726 181.93 173.511 182.422C172.696 184.269 172.665 186.13 173.634 187.915C173.972 188.531 174.003 189.008 173.757 189.624C173.403 190.47 172.865 191.147 172.097 191.655C170.59 192.67 169.145 192.732 168.099 191.747C167.115 190.824 167.146 189.854 168.145 188.116C168.34 187.776 168.583 187.464 168.827 187.152C169.256 186.603 169.685 186.052 169.852 185.346C170.159 185.023 170.221 184.592 170.082 184.238C169.913 183.761 169.713 184.038 169.621 184.345C169.222 185.176 168.607 185.684 167.623 185.607C166.623 185.53 166.024 184.93 165.639 184.068C165.393 183.514 165.27 182.93 165.163 182.33C164.961 181.097 165.118 179.886 165.276 178.677C165.346 178.136 165.417 177.594 165.455 177.051C165.716 176.282 165.944 175.499 166.173 174.715C166.443 173.791 166.714 172.866 167.038 171.958C167.217 171.453 167.444 170.963 167.671 170.472L167.671 170.472C168.185 169.362 168.7 168.248 168.668 166.957C167.084 169.819 165.839 172.804 165.193 176.036C164.409 178.821 163.948 181.653 164.471 184.545C164.732 185.961 165.286 187.223 166.854 187.608C167.445 187.745 167.348 188.006 167.222 188.345C167.207 188.385 167.191 188.427 167.177 188.469C166.592 190.085 166.039 191.701 167.115 193.348C167.33 193.67 167.131 193.977 166.963 194.238L166.961 194.24C166.131 195.471 165.055 196.348 163.502 196.902L163.567 196.715C164.002 195.454 164.39 194.333 164.302 193.101C164.209 191.732 163.502 190.608 162.411 190.239C161.365 189.87 160.212 190.285 159.351 191.424C158.905 191.993 158.536 192.64 158.198 193.271C157.967 193.717 157.844 193.871 157.322 193.517C155.753 192.409 154.523 192.655 153.416 194.225C153.169 194.58 152.944 194.959 152.683 195.397L152.683 195.397C152.572 195.584 152.454 195.782 152.325 195.994C152.075 194.435 152.134 193.087 152.194 191.734L152.202 191.547C152.386 187.762 153.309 184.115 154.308 180.483L158.09 170.696L157.629 170.512C156.199 173.466 155.046 176.528 153.985 179.637C153.972 179.65 153.957 179.66 153.942 179.669C153.921 179.683 153.902 179.696 153.893 179.714C151.633 186.608 150.48 193.624 151.525 200.888C151.618 201.534 151.525 202.026 150.972 202.488C150.48 202.904 150.034 203.458 150.249 204.35C151.442 203.289 152.819 202.736 154.176 202.19L154.354 202.119C155.63 201.603 156.914 201.107 158.198 200.611L158.198 200.611L158.199 200.61C159.482 200.114 160.766 199.618 162.042 199.103C164.348 198.179 166.362 196.856 167.546 194.563C167.807 194.071 168.053 194.055 168.499 194.255C169.483 194.702 170.375 194.44 171.266 193.917C172.85 192.994 173.849 191.609 174.403 189.901C174.416 189.861 174.428 189.822 174.44 189.784L174.44 189.784C174.567 189.387 174.646 189.138 175.264 189.377C177.078 190.054 178.185 189.485 178.877 187.685C179.246 186.715 179.353 185.684 179.446 184.607C181.521 185.561 182.428 185.546 183.32 184.576C184.09 183.733 184.287 182.666 184.489 181.569C184.542 181.285 184.594 180.999 184.658 180.714C186.211 182.253 187.025 182.191 188.132 180.545C188.64 179.791 188.963 178.975 188.84 178.036C189.235 178.084 189.369 178.366 189.503 178.648C189.541 178.728 189.579 178.808 189.624 178.883C189.786 179.166 189.948 179.448 190.111 179.73C190.717 180.782 191.32 181.831 191.915 182.899C193.944 186.577 195.62 190.378 195.82 194.671L195.82 194.689C195.819 194.902 195.819 195.179 196.327 195.194C196.542 190.808 195.189 186.869 193.191 183.084C193.301 182.887 193.492 182.859 193.683 182.832C193.865 182.805 194.047 182.779 194.159 182.607C194.267 181.883 194.374 181.145 194.267 180.437C194.359 180.606 194.497 180.76 194.667 180.899C194.76 181.092 194.851 181.285 194.941 181.477L194.941 181.477C195.074 181.759 195.206 182.039 195.343 182.314L195.351 182.33C195.596 182.804 195.888 183.372 196.512 183.022C197.086 182.693 196.82 182.206 196.592 181.788L196.592 181.788C196.564 181.737 196.537 181.686 196.512 181.637C196.348 181.328 196.141 181.037 195.934 180.746C195.811 180.573 195.688 180.399 195.574 180.221C195.528 180.021 195.466 179.852 195.374 179.698C195.528 179.791 195.681 179.852 195.866 179.914C195.955 179.958 196.043 180.006 196.133 180.055L196.133 180.055L196.133 180.055C196.291 180.142 196.452 180.23 196.619 180.298C197.004 180.452 197.449 180.545 197.695 180.098C197.957 179.591 197.542 179.344 197.157 179.206L197.034 179.252C196.221 178.941 195.521 178.459 194.812 177.971ZM156.43 199.626C155.628 200.099 154.771 200.476 153.882 200.867C153.442 201.061 152.993 201.258 152.54 201.472C152.528 201.249 152.515 201.028 152.502 200.811L152.502 200.811C152.413 199.307 152.331 197.941 152.801 196.61C153.17 195.594 153.724 194.779 154.954 194.825C156.153 194.871 156.891 195.594 157.214 196.702C157.537 197.81 157.537 198.98 156.445 199.626H156.43ZM161.088 198.026C162.518 197.61 163.041 196.533 163.195 195.225V195.209C163.395 193.548 162.426 192.24 161.027 192.101C159.674 191.978 158.444 193.163 158.382 194.825C158.374 195.017 158.368 195.209 158.362 195.401C158.323 196.616 158.283 197.86 157.66 199.241C158.139 199.071 158.572 198.909 158.978 198.758C159.742 198.474 160.405 198.227 161.088 198.026Z" fill="#3F0B01"/>
<path d="M217.39 74.305C217.882 73.9664 218.513 73.8433 218.851 73.2893C219.005 73.0431 219.097 72.7815 218.866 72.5199C218.682 72.3045 218.39 72.2276 218.221 72.3968C217.313 73.2432 215.976 73.474 215.192 74.4896C215.945 74.7512 216.683 74.8282 217.375 74.3204L217.39 74.305Z" fill="#3F0B01"/>
<path d="M215.884 147.368C215.837 146.922 215.714 146.506 215.238 146.321C215.115 146.168 214.992 145.998 214.853 145.86C214.638 145.644 214.454 145.198 214.115 145.398C213.747 145.614 214.069 145.967 214.162 146.244C214.3 146.706 214.423 147.183 214.638 147.599C214.9 148.137 214.884 149.137 215.699 148.953C216.729 148.707 215.745 147.891 215.884 147.352V147.368Z" fill="#3F0B01"/>
<path d="M222.295 131.426C221.526 130.702 220.757 129.979 219.712 129.625C220.173 130.61 220.88 131.395 221.68 132.087C221.91 132.287 222.203 132.364 222.418 132.087C222.572 131.872 222.495 131.61 222.31 131.441L222.295 131.426Z" fill="#3F0B01"/>
<path d="M159.443 18.7692C161.98 18.523 163.441 20.108 165.04 21.4775C164.04 21.6929 163.072 21.6314 162.134 21.8622C161.181 22.1084 160.258 22.37 159.412 22.847C156.076 24.7552 155.523 28.6176 158.183 31.3721C160.812 34.0958 165.393 34.6343 168.591 32.6031C169.145 32.2492 169.621 31.8029 169.883 31.1874C170.067 30.7565 170.113 30.3103 169.775 29.9256C169.437 29.5563 169.022 29.4793 168.56 29.6486C168.084 29.8025 167.869 30.141 167.792 30.6334C167.561 32.3569 166.7 33.0648 164.87 33.0648C162.395 33.0648 159.535 30.9566 158.797 28.556C157.921 25.7246 159.612 22.8778 162.518 22.4623C164.44 22.1854 166.285 22.3854 167.899 23.7242C169.775 25.2784 171.943 25.9247 174.372 25.3245C174.649 25.263 175.049 25.2784 175.002 24.6475C173.865 24.8783 172.758 24.8475 171.712 24.3243C169.821 23.401 168.33 21.9699 166.808 20.585C166.669 20.4619 166.669 20.308 166.838 20.1849C167.115 20.1387 167.392 20.0926 167.669 20.0464C170.867 19.4924 173.957 18.2306 177.293 18.4614C179.307 19.3385 179.538 20.4619 178.031 21.9238C177.385 21.9853 176.94 21.7391 176.709 21.1236C176.448 20.4465 177.093 20.2003 177.416 19.7694C176.14 19.5386 175.202 19.9849 175.079 20.8312C174.956 21.6929 175.725 22.4008 176.924 22.447C177.555 22.4777 178.216 22.5547 178.785 22.1546C179.922 21.9084 180.553 21.1697 180.537 20.031C180.522 18.8923 179.661 18.3537 178.677 18.1075C177.585 17.8151 176.463 17.769 175.341 17.9998C174.403 17.9228 173.511 18.2152 172.604 18.3691C170.267 18.7538 168.022 19.6309 165.624 19.7079C163.318 17.8767 161.088 17.4612 159.443 18.7384V18.7692Z" fill="#3F0B01"/>
<path d="M30.2961 59.3785C30.3423 59.8247 30.2961 60.3479 30.9419 60.6711C30.8035 58.132 32.5101 56.7779 34.0783 54.9775C34.0783 55.6084 34.0783 55.9162 34.0783 56.2239C34.0168 57.9012 34.2167 59.5478 34.9854 61.0712C36.2307 63.5948 38.7522 64.8259 41.2121 63.9949C46.2704 62.2715 47.5311 55.6699 44.8406 51.8229C44.5638 51.4228 44.1641 51.1151 43.6721 50.9766C42.9802 50.7919 42.4421 50.9766 42.3191 51.7614C42.1961 52.4384 42.4267 52.9616 43.1647 53.1309C45.0866 53.5925 45.8553 54.7774 45.4402 56.7163C45.0097 58.6706 43.9642 60.2248 42.2884 61.302C39.7362 62.9485 36.323 62.133 35.2314 59.517C34.2474 57.178 34.5703 54.8852 36.1692 52.8847C37.1994 51.6075 38.168 50.3149 38.4139 48.6376C38.5677 47.6066 38.7368 46.5294 37.9066 45.283C37.7221 46.4217 37.9066 47.3142 37.553 48.1452C37.184 49.0223 36.6766 49.8071 36.0616 50.4995C35.2621 51.4074 34.3397 52.223 33.5556 53.1463C32.9252 53.8695 32.8637 53.3156 32.6946 52.8539C32.5408 51.4228 32.464 49.9763 31.9412 48.6222C31.5107 50.1918 31.9873 51.669 32.3102 53.1617C32.3102 53.2694 32.3563 53.3771 32.3871 53.4848C32.3871 53.531 32.4025 53.5925 32.4178 53.6387C32.5255 54.2235 32.2026 54.6236 31.849 55.039C30.8035 56.2855 30.127 57.7012 30.2961 59.3785Z" fill="#3F0B01"/>
<path fill-rule="evenodd" clip-rule="evenodd" d="M156.799 18.1537C157.26 19.3539 156.722 21.0466 155.63 21.7083C154.508 22.3854 153.678 22.0776 153.001 20.9697C152.74 20.5388 152.186 20.4927 151.679 20.6927C151.264 20.862 151.033 21.1697 151.003 21.616C150.956 22.1546 151.325 22.4316 151.741 22.6316C152.033 22.7701 152.34 22.8778 152.663 22.924C154.892 23.1856 156.722 22.3854 158.152 20.6927C159.059 19.6155 159.197 18.1075 158.551 17.0611C157.798 15.8147 156.614 15.5377 155.292 15.7224C154.557 15.8258 153.831 15.9893 153.094 16.1552C152.844 16.2114 152.593 16.2679 152.34 16.3225C152.817 14.6913 152.817 14.322 152.371 13.8604C151.372 12.8294 148.758 12.9833 147.774 14.1681C147.952 14.1681 148.124 14.1628 148.293 14.1576C148.621 14.1474 148.935 14.1377 149.25 14.1681C150.664 14.3066 151.126 15.2145 150.449 16.4764C149.926 17.4458 149.173 18.046 148.081 18.246C146.774 18.5845 145.483 18.5538 144.038 18.1075C144.156 18.0139 144.273 17.9227 144.388 17.833L144.388 17.8328C145.048 17.3179 145.644 16.8529 146.129 16.2763C147.113 15.0607 147.297 13.4911 146.575 12.4601C145.837 11.4137 144.545 11.1367 142.962 11.783C142.406 12.0055 141.874 12.2683 141.331 12.5365L141.331 12.5365C141.124 12.6391 140.914 12.7425 140.702 12.8448C140.271 10.4288 139.164 9.5671 137.135 10.1057C136.621 10.2342 136.137 10.467 135.652 10.7004C135.44 10.8024 135.228 10.9046 135.013 10.9982C134.798 10.9982 134.598 10.9674 134.49 10.7366C134.644 9.76715 134.552 8.93619 133.414 8.62842C131.938 8.24372 130.078 8.87463 129.555 10.0287C129.617 10.0115 129.676 9.99429 129.734 9.97758L129.734 9.97757C129.935 9.91966 130.114 9.86797 130.293 9.84409C130.356 9.83375 130.42 9.82276 130.484 9.81172C131.184 9.6912 131.924 9.56369 132.445 10.198C133.022 10.8856 132.679 11.561 132.346 12.213C132.307 12.2906 132.268 12.3678 132.23 12.4447C132.119 12.6664 131.971 12.8881 131.83 13.0986L131.83 13.0986L131.784 13.1679C130.436 15.3583 128.692 17.2479 126.964 19.1202L126.649 19.4617C123.543 22.8317 120.115 25.8631 116.517 28.6945C115.441 29.387 114.361 30.0833 113.281 30.7796C112.201 31.4759 111.121 32.1723 110.044 32.8647C110.091 32.934 110.133 33.0032 110.175 33.0725C110.217 33.1417 110.26 33.211 110.306 33.2802C112.674 32.0492 114.949 30.695 117.04 29.0023C121.668 25.7708 125.742 21.9238 129.447 17.6766C130.247 16.7687 131.015 16.4918 132.169 16.6456C134.459 16.9688 136.689 17.4612 138.887 18.1383C139.037 18.1842 139.186 18.2303 139.336 18.2764C142.045 19.1122 144.751 19.947 147.651 19.2616C147.378 20.0136 146.776 20.4535 146.182 20.8873C145.974 21.0393 145.767 21.1906 145.575 21.3544C141.747 24.5859 137.611 27.3712 133.291 29.8948C131.899 30.5335 130.508 31.1683 129.116 31.8031C127.725 32.4378 126.334 33.0725 124.942 33.7111C125.004 33.8496 125.065 33.9881 125.112 34.1112C128.156 33.1417 131.077 31.8645 133.86 30.2334L133.86 30.2333C134.121 30.1256 134.383 30.0179 134.629 29.8948C139.964 26.8787 144.991 23.401 149.496 19.2155C150.787 18.0152 152.171 16.9688 153.954 16.6456C155.261 16.4148 156.384 17.0303 156.814 18.1537H156.799ZM135.612 15.9532C134.536 15.7839 133.46 15.6454 132.384 15.5531C131.707 15.4915 131.477 15.3376 131.969 14.7067C132.937 13.4603 133.952 12.2446 135.351 11.4752C137.012 10.5673 138.672 11.506 138.703 13.3218C138.734 15.1838 137.457 16.2455 135.612 15.9378V15.9532ZM139.22 16.8111C140.253 17.1224 141.215 17.4123 142.193 17.6459V17.6305C143.346 17.9075 144.299 17.3073 144.883 16.0763C145.406 14.9837 145.237 13.7373 144.391 13.0756C143.407 12.3216 142.377 12.4755 141.501 13.2141C140.705 13.8743 139.952 14.5916 139.155 15.3515C138.781 15.7074 138.398 16.0726 137.996 16.4456C138.417 16.5693 138.824 16.6917 139.22 16.8111Z" fill="#3F0B01"/>
<path d="M117.67 9.13624C118.408 8.82847 119.177 8.55149 119.823 9.1824C120.438 9.76715 120.253 10.5366 120.007 11.229C119.531 12.614 118.977 13.9527 117.962 15.0607C117.809 15.2299 117.578 15.3992 117.839 15.7377C119.115 15.2915 119.7 14.1682 120.376 13.1371C121.13 11.9677 121.898 10.8443 123.082 10.0595C124.281 9.27473 125.45 9.22857 126.342 9.95181C127.279 10.7058 127.618 12.0292 127.172 13.2603C126.649 14.7375 125.481 15.153 124.189 14.2913C123.682 13.9527 123.22 13.9219 122.744 14.2913C122.359 14.5836 122.19 14.9991 122.329 15.4761C122.513 16.0301 123.005 16.1378 123.497 16.1378C125.88 16.184 127.418 14.8452 128.525 12.9063C129.34 11.4752 129.14 9.84409 128.156 8.84386C127.218 7.87441 125.926 7.7513 124.343 8.55149C123.528 8.96697 122.759 9.49016 121.775 10.0903C121.96 9.19779 121.852 8.50532 121.622 7.82825C124.005 5.75085 126.157 3.39646 128.725 1.51911C129.37 1.31907 129.985 0.934363 130.693 1.0113C131.446 1.10363 131.969 1.50372 132.199 2.22697C132.384 2.81171 132.276 3.39646 131.83 3.79656C131.369 4.21203 130.846 3.98121 130.4 3.65806C130.339 3.30414 130.339 2.9656 130.4 2.59628C130.477 1.9192 130.139 2.16541 129.862 2.42701C129.094 2.88866 128.555 3.53496 129.078 4.41208C129.586 5.2892 130.462 5.13532 131.246 4.81217C132.122 4.45824 132.876 3.88888 133.322 3.02715C133.706 2.30391 133.767 1.54989 133.322 0.826646C132.891 0.13418 132.184 -0.0504773 131.415 0.0110752C130.293 0.0880158 129.324 0.565048 128.432 1.24213C128.063 1.47295 127.679 1.68838 127.326 1.96537C125.112 3.67345 123.159 5.65852 121.114 7.55126C118.839 7.38199 117.363 8.0129 116.886 9.36706C117.209 9.49016 117.409 9.22857 117.655 9.12085L117.67 9.13624Z" fill="#3F0B01"/>
<path d="M31.9105 48.576V48.6068C31.9105 48.6068 31.9105 48.576 31.9105 48.5606C31.9105 48.5606 31.9105 48.5606 31.8951 48.5606L31.9105 48.576Z" fill="#3F0B01"/>
<path d="M203.968 49.6378C204.091 49.9148 204.368 49.8532 204.414 49.8378C205.475 49.6686 206.351 49.5455 207.212 49.3608C207.674 49.2685 208.258 49.0838 208.135 48.4683C207.981 47.7297 207.305 47.8835 206.859 48.0374C205.998 48.3298 205.167 48.7607 204.322 49.13C204.107 49.2223 203.83 49.33 203.968 49.6378Z" fill="#3F0B01"/>
<path d="M76.789 11.9061C76.7429 12.2293 76.7737 12.5678 76.912 12.9217C77.5578 12.614 78.9569 10.1211 78.8031 9.55173C78.7416 9.33629 78.6186 9.18241 78.4187 9.13625C78.1574 9.07469 77.9575 9.22858 77.7884 9.41323C77.404 9.85949 77.281 10.4135 77.1119 10.952C77.0197 11.1213 76.9582 11.2906 76.8967 11.4599C76.8967 11.4599 76.8967 11.4599 76.8967 11.4291C76.6507 10.3981 76.9274 9.3209 76.6814 8.2899C76.2048 7.59743 75.6052 7.45894 75.4668 8.39762C75.2669 9.73638 75.5437 11.0598 76.4047 12.1831C76.5584 12.1215 76.6814 12.0138 76.7737 11.9061H76.789Z" fill="#3F0B01"/>
<path d="M21.8554 60.9789C22.701 61.102 23.5159 61.3174 24.3154 61.6252C24.4999 61.7021 24.7305 61.8098 24.8689 61.6252C25.0534 61.3789 24.8381 61.1789 24.6536 61.0096C24.4999 60.8711 24.3461 60.748 24.1924 60.6249C24.0233 60.4095 23.8234 60.2556 23.6081 60.1479C23.7619 60.2402 23.9618 60.271 24.1924 60.2094C24.2693 60.1941 24.3308 60.1633 24.4076 60.1479C24.7459 59.5478 24.4076 59.2092 23.931 58.9322C23.562 58.4552 23.193 57.9628 22.7933 57.5165C22.4397 57.1164 22.0092 56.6394 21.4864 57.1472C20.9945 57.6089 21.4249 58.0551 21.7632 58.3783C22.2244 58.8245 22.7318 59.2246 23.2084 59.6555C23.3007 59.8709 23.4237 60.0402 23.5774 60.1325C23.3775 60.0402 23.1469 59.9786 22.9163 59.9478C22.6395 59.8863 22.3628 59.8094 22.0861 59.7632C21.6402 59.6863 21.2251 59.7786 21.1021 60.2402C20.9637 60.7942 21.4403 60.9019 21.8401 60.9635L21.8554 60.9789Z" fill="#3F0B01"/>
<path d="M75.8051 13.3988C75.9589 12.0908 75.513 11.0136 74.6366 10.1211C74.3753 9.85948 74.0063 9.69021 73.668 10.0288C73.422 10.2596 73.4374 10.5827 73.668 10.7982C74.4521 11.5983 74.9903 12.5986 75.8205 13.4141L75.8051 13.3988Z" fill="#3F0B01"/>
<path d="M24.8996 59.9171C25.1302 60.1017 25.2225 60.5788 25.6222 60.3633C25.9758 60.1787 25.6991 59.8555 25.653 59.6093C25.5607 59.1015 25.4839 58.5629 25.2994 58.0859C25.0841 57.5165 25.2225 56.3778 24.2846 56.6548C23.4698 56.901 24.0079 57.8243 24.177 58.4552C24.3615 58.963 24.4076 59.5631 24.8996 59.9171Z" fill="#3F0B01"/>
<path d="M159.105 12.2139C159.228 12.1215 159.305 12.0292 159.382 11.9215C159.336 12.0138 159.29 12.0908 159.259 12.1985C159.351 12.3062 159.428 12.4139 159.52 12.5216C159.735 12.614 159.92 12.6447 160.074 12.6293C159.874 12.7832 159.689 12.9525 159.536 13.1679C159.382 13.4449 159.12 13.9066 159.689 13.7835C160.75 13.568 161.765 13.1525 162.78 12.7832C163.056 12.6909 163.241 12.4293 163.118 12.1062C163.01 11.7984 162.733 11.6907 162.426 11.7368C162.118 11.783 161.811 11.8907 161.488 11.9677C161.196 12.0446 160.935 12.1523 160.658 12.26C160.781 12.1062 160.888 11.9215 160.981 11.7061C161.411 11.2906 161.857 10.9059 162.257 10.4596C162.549 10.1365 162.826 9.7056 162.364 9.30551C161.98 8.96697 161.58 9.21318 161.319 9.52095C160.842 10.0595 160.427 10.6443 159.981 11.1983C159.797 11.306 159.643 11.4291 159.52 11.583C159.628 11.2906 159.659 10.9828 159.72 10.6751C159.72 10.3057 159.751 9.95181 159.689 9.59789C159.659 9.35168 159.428 9.18241 159.167 9.15163C158.89 9.12085 158.675 9.30551 158.628 9.53633C158.413 10.6904 158.229 11.8599 158.029 13.0602C158.721 13.0294 158.798 12.5062 159.074 12.1985L159.105 12.2139Z" fill="#3F0B01"/>
<path d="M203.199 49.3454C203.861 48.9299 204.537 48.5145 205.167 48.0528C205.49 47.822 205.69 47.4527 205.721 47.0064C205.706 46.8064 205.629 46.6217 205.429 46.5294C205.137 46.3755 204.86 46.4678 204.675 46.7141C204.107 47.4988 203.445 48.1913 202.738 48.8376C202.6 48.9761 202.446 49.1608 202.631 49.3454C202.8 49.5147 203.015 49.4377 203.184 49.3454H203.199Z" fill="#3F0B01"/>
<path d="M187.256 46.3293C187.256 46.8833 187.594 47.1911 188.163 47.2834C188.717 47.2526 189.07 46.9141 189.086 46.3909C189.116 45.8369 188.747 45.4984 188.194 45.483C187.64 45.4676 187.256 45.76 187.256 46.3293Z" fill="#3F0B01"/>
<path d="M31.726 46.7448C31.6952 46.2986 31.6952 45.8523 31.6337 45.4061C31.4646 44.2981 31.5261 43.2056 32.0181 42.2053C32.6331 40.9589 34.0475 40.7896 34.8931 41.8052C35.2467 42.2361 35.339 42.667 34.9393 43.0978C34.5395 43.5287 34.0783 43.6518 33.5402 43.2671C33.3403 43.1132 33.371 42.6824 32.9559 42.7901C32.8329 44.2366 33.2327 45.0214 34.109 45.0829C35.0008 45.1599 35.7234 44.2212 35.7849 42.9286C35.7849 42.8516 35.7849 42.7593 35.7849 42.6824C35.7695 40.9589 34.8009 39.5894 33.5555 39.5124C32.4024 39.4355 31.48 40.5588 31.2186 42.3131C30.9111 44.3135 31.2493 46.2678 31.4953 48.2375C31.5261 48.4991 31.603 48.7145 31.9258 48.576C31.9258 48.376 31.9258 48.1759 31.9258 47.9759C31.9566 47.545 31.9719 47.1142 31.7106 46.7294L31.726 46.7448Z" fill="#3F0B01"/>
<path fill-rule="evenodd" clip-rule="evenodd" d="M50.8802 27.4975C50.3346 27.0439 49.7855 26.5875 49.1761 26.2017V26.2478C48.8533 26.0478 48.5612 25.7554 48.8379 25.3553C49.0839 24.986 49.4836 25.0168 49.8065 25.2168C50.0646 25.3758 50.3035 25.5733 50.5438 25.772C50.6757 25.881 50.808 25.9904 50.9442 26.094C51.0826 26.2171 51.221 26.3402 51.344 26.4633C51.2711 26.3416 51.2173 26.1719 51.1677 26.015C51.1545 25.9733 51.1416 25.9326 51.1287 25.8939C51.0186 25.5568 50.8457 25.2469 50.6733 24.938C50.4365 24.5136 50.2005 24.0908 50.1294 23.6011C50.0679 23.201 50.0217 22.7393 50.4984 22.5855C50.9596 22.4316 51.221 22.8009 51.3747 23.1856C51.5592 23.678 51.713 24.1704 51.8667 24.6629C51.9777 24.7899 51.9988 24.9455 52.0205 25.1066C52.041 25.2578 52.062 25.4138 52.1588 25.5554C52.2049 25.6169 52.2357 25.6939 52.2664 25.7708C52.2818 25.6477 52.2972 25.5246 52.3587 25.3861C52.421 25.1635 52.424 24.9151 52.4271 24.6667C52.4347 24.0565 52.4422 23.446 53.3273 23.2164C53.4964 23.3241 53.604 23.4318 53.6655 23.5549C53.6452 23.4226 53.6383 23.2836 53.6315 23.1467L53.6315 23.1467L53.6315 23.1466C53.6281 23.0766 53.6246 23.0071 53.6194 22.9394C52.6047 19.354 51.7745 15.7377 52.3279 11.9523C52.3395 11.883 52.35 11.8138 52.3606 11.7445C52.3923 11.5368 52.424 11.329 52.4817 11.1213C52.5059 11.0121 52.578 10.9028 52.6451 10.8012L52.6451 10.8012C52.6631 10.7739 52.6807 10.7472 52.6969 10.7212C53.0352 10.8289 53.0659 11.0905 53.0352 11.3213C52.4048 15.8147 53.727 19.9695 55.2184 24.0935C55.4721 24.7936 55.7296 25.4938 55.9871 26.1939L55.9872 26.1942C56.2447 26.8943 56.5022 27.5944 56.7558 28.2945C56.8149 28.3217 56.8713 28.4001 56.927 28.4776C57.0597 28.662 57.1885 28.841 57.3401 28.3098C57.5246 27.6482 57.8628 27.048 58.3087 26.5094C59.5848 24.9706 60.4765 24.986 61.7987 26.571C62.019 26.5201 62.0619 26.3477 62.1049 26.1749C62.1399 26.0341 62.175 25.893 62.3061 25.817C62.3209 25.2112 62.6191 24.7047 62.9151 24.2021L62.9518 24.1397C63.9358 22.447 65.3349 22.1392 66.9185 23.2625C66.9686 23.2973 67.0149 23.3378 67.0614 23.3786C67.2004 23.5004 67.3416 23.6241 67.595 23.6011C67.8717 22.5701 68.1792 21.5237 68.7481 20.585C69.6398 19.0924 70.839 18.6923 72.3304 19.5386C73.0222 19.9387 73.2067 19.6925 73.4681 19.1385C74.16 17.6459 75.3131 16.6149 76.8044 15.9224C77.8653 15.4146 78.8954 15.2607 79.9255 15.9224L79.9539 15.9404C80.2346 16.1185 80.488 16.2792 80.7557 15.907C82.9294 12.9375 86.1836 12.2712 89.4592 11.6004C89.6125 11.569 89.7658 11.5376 89.919 11.506C90.1761 11.4522 90.4333 11.3989 90.6903 11.3455C93.5225 10.7579 96.3439 10.1725 99.0362 9.04391C99.8356 8.72075 100.835 8.47454 101.773 8.47454C103.018 8.48993 103.218 9.444 103.28 10.6597C103.526 10.4519 103.772 10.2325 104.018 10.0132L104.018 10.0131C105.902 8.33221 107.776 6.66123 109.829 10.3365C110.167 10.0577 110.468 9.74456 110.768 9.43287C111.163 9.02199 111.556 8.61365 112.028 8.28989C114.119 6.87418 116.24 7.84363 116.502 10.3519C116.748 12.6447 114.657 15.5531 112.412 16.0455C111.766 16.184 111.167 16.184 110.798 15.5531C110.552 15.1376 110.659 14.6913 111.013 14.3374C111.49 13.8604 111.982 13.8912 112.566 14.1835C113.642 14.7221 114.319 14.4451 114.764 13.3526C115.118 12.4908 115.133 11.6137 114.764 10.752C113.996 8.9208 112.212 8.64381 110.936 10.1672C110.321 10.8905 109.968 11.7522 109.629 12.6293C109.076 14.0604 108.261 15.2915 106.954 16.1532C106.354 16.5533 105.709 16.7226 105.002 16.661C104.525 16.6303 104.125 16.4456 103.987 15.9532C103.864 15.5069 104.079 15.1376 104.387 14.8606C104.725 14.5529 105.171 14.3374 105.601 14.6452C106.477 15.2607 107.246 15.3223 107.861 14.3374C108.615 13.1371 108.399 11.2444 107.446 10.3827C106.585 9.59788 105.494 9.55171 104.602 10.3365C103.572 11.2444 102.972 12.4601 102.511 13.7219C99.6973 21.4775 95.7767 28.6176 90.7492 35.1729C90.0411 36.0943 89.4461 37.109 88.8504 38.1248C88.5408 38.6529 88.2309 39.1813 87.9049 39.6971C87.8423 39.7959 87.784 39.9005 87.7252 40.0058C87.5095 40.3923 87.2878 40.7896 86.8287 40.9589C86.5865 40.7511 86.6817 40.5694 86.7768 40.3876C86.8085 40.327 86.8402 40.2664 86.8594 40.2049C86.9024 40.08 86.9875 39.9624 87.073 39.8443C87.2932 39.5401 87.5158 39.2325 87.0285 38.7892C86.8694 38.6432 87.1563 38.3255 87.3665 38.0928C87.4 38.0557 87.4315 38.0207 87.459 37.989C92.3943 32.4185 94.7466 25.7246 96.0074 18.5538C96.065 18.2077 96.0926 17.8617 96.1277 17.4219L96.1277 17.4217L96.1277 17.4216C96.1488 17.1574 96.1726 16.8594 96.2072 16.5071C96.0771 16.6751 95.9525 16.84 95.8312 17.0004L95.8311 17.0005C95.0635 18.0157 94.4292 18.8546 93.3937 19.2001C92.0714 19.6309 91.149 18.9846 90.3802 17.8767C90.1028 18.1891 89.8623 18.5123 89.6278 18.8276L89.6277 18.8276L89.6277 18.8277C89.2383 19.3511 88.8651 19.8527 88.3661 20.2465C87.3975 21.0005 86.3982 21.3852 85.2297 20.785C84.1996 20.2619 83.6615 18.9846 83.8306 17.6459C83.9382 16.661 84.3072 15.7685 84.7685 14.9068C84.8607 14.7375 84.953 14.4759 84.8761 14.3528C84.7224 14.1066 84.4456 14.2143 84.215 14.3066C83.108 14.7375 82.1087 15.3223 81.3246 16.2456C81.1093 16.4918 80.9402 16.7687 81.0786 17.1227C81.7397 18.8308 81.1247 20.3234 80.2791 21.7391C79.9255 22.3239 79.9101 22.5239 80.6173 22.8471C81.8012 23.3856 82.2163 24.509 82.2778 25.7554C82.4162 28.3714 81.8165 30.8335 80.8018 33.2033C79.618 36.7425 77.7269 39.8971 75.4976 42.867C75.5198 41.8781 76.0309 41.1138 76.5391 40.3541C76.7347 40.0617 76.9299 39.7699 77.0965 39.4662C77.3112 39.0687 77.5316 38.6749 77.7516 38.2815L77.7516 38.2815L77.7517 38.2815C78.1619 37.5482 78.5712 36.8166 78.9415 36.0655C79.3466 35.2439 79.6999 34.3928 80.0527 33.5429C80.2088 33.1669 80.3648 32.7913 80.5251 32.4185C80.6092 31.9708 80.7137 31.5283 80.8181 31.0865C81.0761 29.9943 81.3332 28.9063 81.2784 27.7559C81.2323 27.048 81.1554 26.3709 80.8172 25.7554C80.0023 24.2782 78.4341 24.0935 77.3271 25.3399C77.2896 25.3813 77.2575 25.4291 77.2249 25.4777C77.1241 25.628 77.018 25.7862 76.7275 25.7862C76.6507 24.7706 77.2349 24.0627 77.8499 23.401C78.0335 23.2045 78.223 23.0138 78.4125 22.8232L78.4126 22.8231L78.4127 22.823C78.9056 22.3272 79.3984 21.8314 79.7871 21.2313C80.3406 20.385 80.5558 19.5232 79.9255 18.6307C79.2951 17.7382 78.388 17.2458 77.3118 17.415C76.1279 17.5997 75.0671 18.1229 74.283 19.077C73.6987 19.7848 73.3759 20.4465 73.8217 21.4775C74.6366 23.3856 73.8986 26.1863 72.4687 27.4327C71.946 27.879 71.3618 28.3406 70.6392 27.8174C70.224 27.5097 70.1933 27.048 70.347 26.6018C70.5162 26.094 70.9005 25.8631 71.454 25.8324C73.053 25.7554 73.5603 25.0322 73.1299 23.4626C72.9146 22.6932 72.5302 22.0469 71.8691 21.5852C70.3932 20.5388 68.8403 21.1236 68.4252 22.8778C68.2056 23.8216 68.2682 24.7762 68.3303 25.7235L68.3303 25.7236L68.3303 25.7237C68.3421 25.9038 68.3539 26.0837 68.3637 26.2632C68.4252 27.6789 68.1177 28.9869 67.3644 30.2026C67.0261 30.7258 66.5956 31.1413 66.0114 31.3721C65.3503 31.6337 64.7507 31.5567 64.5508 30.8027C64.3663 30.0795 64.6738 29.4024 65.4425 29.3562C65.4993 29.3521 65.5558 29.3481 65.6119 29.3443C66.5873 29.2768 67.4284 29.2186 67.472 27.8944C67.5181 26.494 66.6879 25.1553 65.4579 24.7244C64.1511 24.2628 63.3823 24.6936 62.5828 26.3556C62.4481 27.6032 62.4692 28.8427 62.4903 30.086L62.4903 30.0861C62.4982 30.5448 62.506 31.0041 62.506 31.4644C62.506 32.3108 62.4752 33.1571 61.8602 33.8496C61.4863 33.6806 61.5382 33.4168 61.5854 33.1773C61.5983 33.1115 61.6109 33.0475 61.6142 32.9878C61.7219 31.4644 61.4759 29.9872 60.9531 28.5714C60.3996 27.0634 59.1697 26.8787 58.2164 28.1714C58.1598 28.2483 58.1 28.3255 58.0395 28.4035L58.0392 28.4038L58.0392 28.4039C57.6399 28.9191 57.2115 29.4718 57.4785 30.2334C59.4003 34.5266 60.4458 39.0508 60.8455 43.7287C61.3221 49.2685 60.7533 54.7467 60.0768 60.2248C60.0734 60.2529 60.0702 60.2811 60.067 60.3095L60.067 60.3096L60.067 60.3097C60.0261 60.6701 59.9827 61.0531 59.5694 61.4097C59.3083 60.9616 59.379 60.5236 59.4482 60.0957C59.4645 59.9946 59.4808 59.894 59.4925 59.794C60.3381 53.4233 60.784 47.0372 59.6155 40.6511C59.2927 38.8045 58.8468 37.0041 58.1703 35.2499C57.9494 35.3207 57.9113 35.4829 57.8751 35.6374C57.8483 35.7516 57.8225 35.8615 57.7245 35.927C57.7543 36.5397 57.5231 37.0944 57.2985 37.6333L57.2786 37.6812C56.7866 38.8815 56.0025 39.7432 54.6034 39.8048C53.1736 39.8509 52.2511 39.0969 51.6361 37.8813C50.5752 35.7731 51.1287 32.4493 52.7431 31.2644C53.2658 30.8797 53.85 30.6488 54.3728 31.2182C54.8648 31.7568 54.7418 32.3415 54.2959 32.8647C54.0897 33.0986 53.7975 33.1234 53.5072 33.148C53.4727 33.1509 53.4384 33.1538 53.4042 33.1571C52.2818 33.2802 51.6515 34.1419 51.8513 35.2807C52.082 36.5579 53.358 37.712 54.6341 37.7735C55.8949 37.8197 56.7712 37.1119 57.2017 35.65C57.2372 35.5344 57.2779 35.424 57.3178 35.3157L57.3178 35.3157L57.3178 35.3157C57.3469 35.2365 57.3756 35.1586 57.4016 35.0806C57.5246 33.7572 57.2325 32.5108 56.7558 31.2951C56.0888 29.5705 55.4379 27.8539 54.7856 26.1337L54.7855 26.1335L54.7855 26.1334C54.5357 25.4747 54.2857 24.8155 54.0345 24.155C53.8654 24.0473 53.7885 23.9088 53.727 23.755C53.7596 23.9504 53.7156 24.1611 53.6707 24.3763C53.6519 24.4662 53.633 24.5568 53.6194 24.6475C53.5887 24.8206 53.5589 24.9937 53.5291 25.1668C53.4397 25.6862 53.3504 26.2055 53.2351 26.7249L53.2275 26.7567C53.1518 27.0779 53.05 27.5096 52.5739 27.048C52.5472 26.9723 52.5192 26.8978 52.4914 26.8239C52.4232 26.6425 52.3563 26.4644 52.3126 26.2786C52.2511 26.4171 52.1588 26.5402 51.959 26.6171C51.7591 26.6787 51.6207 26.6633 51.5131 26.5864C51.6822 26.8018 51.8052 27.0326 51.8513 27.325C51.9282 27.8174 51.959 28.3868 51.2671 27.8174C51.1379 27.7117 51.0093 27.6048 50.8806 27.4977L50.8805 27.4977L50.8802 27.4975ZM99.1247 10.4429C98.7496 10.6567 98.3712 10.8725 97.9446 10.9213V10.9059C97.6256 10.9475 97.6319 11.5649 97.6362 11.9905C97.6366 12.0367 97.6371 12.0808 97.6371 12.1215C97.4679 17.4458 96.3763 22.5701 94.3776 27.4943C94.1243 27.7338 94.0255 28.0636 93.9281 28.3892L93.901 28.4791C93.5782 28.9715 93.3475 29.5101 93.1938 30.1872C93.778 29.864 93.9625 29.4178 94.147 28.9715C94.3161 28.6639 94.4851 28.3409 94.6541 28.0179L94.6544 28.0175C97.2835 23.678 99.4667 19.1231 101.142 14.322C101.45 13.4141 101.727 12.4601 101.727 11.4752C101.727 10.8751 101.573 10.3057 100.973 10.0749C100.259 9.79629 99.6956 10.1174 99.1247 10.4429ZM92.6096 12.3831C93.7473 11.9677 94.9157 11.6599 96.0996 11.3829C96.7124 11.2454 96.65 11.5512 96.5909 11.8408C96.564 11.9727 96.5377 12.1012 96.5762 12.1831C96.4378 13.4757 96.2687 14.7067 95.6999 15.8608C95.2232 16.8303 94.5468 17.5535 93.3629 17.4612C92.3021 17.3689 91.4565 16.4148 91.272 15.2299C91.0721 13.9681 91.5641 12.7678 92.5942 12.3831H92.6096ZM87.8127 13.2756C86.1983 13.5988 85.2912 14.5682 85.0452 16.1994L85.0606 16.2148C84.8607 17.4766 85.5526 18.7384 86.6903 19.1385C87.7204 19.5078 88.8428 19 89.5039 17.8305C89.6884 17.4766 89.8267 17.0765 89.8882 16.6918C90.0727 15.3684 90.3802 14.0758 91.149 12.6601C89.8575 12.8909 88.8274 13.0756 87.8127 13.2756Z" fill="#3F0B01"/>
<path fill-rule="evenodd" clip-rule="evenodd" d="M179.876 27.9713C179.953 27.9713 180.107 27.9405 180.107 27.9405C180.245 27.8944 180.399 27.8636 180.522 27.8636C180.693 27.8336 180.864 27.8035 181.035 27.7733C183.322 27.3695 185.6 26.9675 187.917 27.125C188.121 27.1072 188.335 27.1457 188.55 27.1845C188.709 27.2129 188.868 27.2415 189.024 27.2481C189.2 27.2827 189.378 27.3111 189.554 27.3393C190.162 27.4368 190.763 27.5331 191.3 27.879C191.945 28.2945 192.422 28.8177 192.391 29.6486C192.376 30.5257 191.868 31.0797 191.146 31.4336C190.116 31.9261 189.039 32.003 187.979 31.5567C187.317 31.2798 186.703 30.8489 186.841 30.0333C186.995 29.1716 187.686 28.91 188.486 28.9254C188.609 28.9331 188.728 28.9446 188.847 28.9561C188.966 28.9677 189.086 28.9792 189.209 28.9869C189.227 29.2666 189.054 29.3599 188.884 29.4516C188.773 29.5112 188.664 29.5702 188.609 29.6794C188.378 30.141 188.44 30.5411 188.763 30.9104C189.101 31.3105 189.516 31.3259 189.947 31.0489C190.531 30.6796 190.869 30.1103 190.792 29.4178C190.7 28.6638 190.223 28.1406 189.516 27.9405C189.002 27.7906 188.481 27.7077 187.958 27.6245C187.729 27.5882 187.5 27.5518 187.271 27.5097C186.218 27.6328 185.161 27.7559 184.104 27.879C183.047 28.0021 181.99 28.1252 180.937 28.2483C180.414 28.356 179.907 28.4637 179.2 28.6176C180.136 29.3811 180.968 30.2338 181.792 31.0784C183.16 32.4806 184.506 33.8605 186.272 34.7729C186.305 34.7894 186.338 34.8054 186.371 34.821C186.671 34.965 186.907 35.0785 186.38 35.3422C186.019 35.5158 186.169 35.6663 186.315 35.8136C186.337 35.8361 186.359 35.8584 186.38 35.8808C187.364 36.958 188.394 38.0044 189.793 38.543C191.023 39.02 192.176 38.6968 193.098 37.6966C193.836 36.8964 193.99 35.9885 193.529 35.0037C193.298 34.5113 192.975 34.0342 192.422 33.9573C191.838 33.865 191.484 34.342 191.192 34.7882C191.152 34.8517 191.118 34.9217 191.084 34.9917C191.027 35.1083 190.971 35.2249 190.884 35.3114C190.439 35.7577 189.87 35.6808 189.439 35.3884C188.942 35.048 189.246 34.7077 189.5 34.4241C189.544 34.3744 189.587 34.3264 189.624 34.2804C190.362 33.3264 192.068 33.0032 193.56 33.4956C194.743 33.8957 195.497 34.6651 195.574 35.9577C195.651 37.235 194.882 38.3891 193.513 38.9584C191.561 39.7894 189.639 39.6047 187.779 38.6353C187.056 38.2506 186.426 37.7428 185.811 37.2042C185.564 36.9884 185.342 36.704 185.12 36.4203C184.677 35.8543 184.237 35.2909 183.612 35.2807C182.991 35.2694 182.361 35.7151 181.741 36.1538C181.518 36.3121 181.295 36.4694 181.075 36.604C174.572 40.6357 167.346 42.2053 159.858 42.867C158.167 43.0055 156.476 43.144 154.785 43.2517C154.698 43.2565 154.611 43.264 154.523 43.2714C154.049 43.3119 153.558 43.3537 153.078 42.9901C153.406 42.6017 153.809 42.6058 154.199 42.6098C154.304 42.6109 154.407 42.6119 154.508 42.6054C160.489 42.2515 166.454 41.7591 172.173 39.7278C174.341 38.9584 176.448 38.0198 178.569 36.7425C178.099 36.491 177.676 36.5037 177.283 36.5156C177.123 36.5204 176.968 36.5251 176.817 36.5117C174.68 36.2963 173.311 35.2807 173.188 33.7419C173.05 32.203 174.249 30.9566 176.325 30.4334C177.063 30.2488 177.816 30.1872 178.754 30.1872C177.855 29.0437 176.73 28.5347 175.618 28.0315L175.587 28.0175C175.363 27.9873 175.137 27.9831 174.912 27.979C174.564 27.9727 174.216 27.9664 173.88 27.8636C173.788 27.8482 173.711 27.8328 173.619 27.7867C173.214 27.3386 173.529 27.2978 173.849 27.2563C173.869 27.2536 173.89 27.2509 173.911 27.2481C174.956 27.0942 176.002 27.2788 176.955 27.6328C177.924 28.0021 178.877 28.0636 179.876 27.9713ZM182.072 33.3042C181.378 32.6358 180.696 31.9782 179.984 31.3721C179.123 30.6335 177.355 30.695 176.355 31.4336C175.448 32.0953 175.064 32.9724 175.356 34.0804C175.633 35.173 176.601 35.8346 178.047 35.927C179.78 36.0408 181.199 35.2341 182.655 34.4065C182.774 34.3388 182.893 34.271 183.013 34.2035C182.694 33.904 182.382 33.603 182.072 33.3042Z" fill="#3F0B01"/>
<path fill-rule="evenodd" clip-rule="evenodd" d="M88.7659 202.442C87.828 203.304 86.8594 203.473 85.9062 203.55H85.9523C85.2376 203.596 84.5143 203.59 83.7888 203.584C83.5466 203.583 83.3043 203.581 83.0619 203.581C83.0072 203.609 82.9524 203.638 82.8977 203.667C80.2771 205.039 77.6514 206.413 74.7749 207.212C73.7602 207.658 72.6686 207.812 71.577 207.658C70.7006 207.535 69.9012 207.181 69.6705 206.212C69.4245 205.181 69.855 204.381 70.7006 203.811C71.2695 203.411 71.9152 203.15 72.6071 203.073C73.8371 202.934 74.7134 203.396 74.8057 204.242C74.8979 205.104 74.2676 205.627 72.93 205.827C72.9252 205.818 72.9196 205.807 72.9137 205.795C72.8819 205.734 72.8401 205.653 72.8531 205.627C73.2375 205.212 73.4835 204.766 73.0837 204.227C72.8223 203.858 72.4534 203.642 72.0382 203.796C71.454 204.011 71.1773 204.519 71.1158 205.119C71.0081 206.043 71.6692 206.858 72.6532 206.966C72.9915 207.007 73.3434 206.993 73.6953 206.98C73.8712 206.973 74.0472 206.966 74.2214 206.966C76.2468 206.29 78.1603 205.36 80.0695 204.432C80.5081 204.219 80.9465 204.006 81.386 203.796C81.4626 203.758 81.5455 203.726 81.6292 203.693C81.915 203.583 82.2099 203.469 82.2931 203.088C81.2303 202.745 80.2583 202.215 79.2864 201.686C78.515 201.265 77.7438 200.845 76.9274 200.518C76.7137 200.431 76.5033 200.334 76.2931 200.238C75.5807 199.912 74.8715 199.587 74.0523 199.61C73.8217 199.61 73.4066 199.472 73.6372 199.257C74.4323 198.52 73.8809 198.38 73.4466 198.269C73.3182 198.236 73.2 198.206 73.1298 198.164C72.0536 197.502 70.9005 197.01 69.6244 196.871C68.3637 196.733 67.1798 197.456 66.6264 198.703C66.1344 199.795 66.365 200.765 67.226 201.565C68.1023 202.38 68.8557 202.196 69.2708 201.088C69.3188 200.971 69.3393 200.842 69.3595 200.714C69.3847 200.556 69.4094 200.4 69.486 200.272C69.7782 199.749 70.347 199.595 70.8544 199.749C71.4181 199.916 71.2345 200.339 71.0865 200.68C71.0568 200.748 71.0286 200.813 71.0081 200.872C70.6391 201.996 69.0863 202.842 67.5027 202.842C66.242 202.857 65.3195 202.288 64.7968 201.149C64.2894 200.057 64.6277 198.764 65.75 197.764C67.9178 195.81 70.3932 195.671 73.0068 196.671C73.8678 197.01 74.7134 197.425 75.4975 197.918C76.2201 198.379 76.6506 198.303 77.2041 197.625C80.0484 194.209 83.2464 191.178 87.0439 188.839C87.2818 188.692 87.5184 188.543 87.7553 188.393C88.7127 187.788 89.6738 187.181 90.7338 186.761C94.4699 184.561 98.5134 183.037 102.588 181.576C102.726 181.529 102.895 181.545 103.11 181.714C101.923 182.473 100.619 182.979 99.3168 183.485C98.612 183.759 97.9075 184.032 97.2219 184.345C96.2302 184.799 95.2386 185.257 94.2469 185.715C93.2552 186.173 92.2636 186.631 91.2719 187.085C87.8895 189.116 84.584 191.27 81.8473 194.163C81.7089 194.309 81.5744 194.459 81.4398 194.609C81.3053 194.759 81.1708 194.909 81.0324 195.056C80.9567 195.586 81.239 195.445 81.512 195.308L81.5244 195.302C81.7083 195.263 81.8921 195.219 82.0763 195.176C82.8317 194.998 83.593 194.818 84.3841 194.917C85.5064 195.04 86.4135 195.548 86.7979 196.656C87.1823 197.779 86.8748 198.795 86.0599 199.672C85.2027 200.586 84.0885 201.063 82.9522 201.55C82.8454 201.596 82.7384 201.642 82.6314 201.688C83.5231 202.252 85.5679 202.503 88.7659 202.442ZM80.3098 200.611C80.525 200.718 80.7403 200.826 80.9709 200.903C82.1855 201.334 83.723 200.826 84.5071 199.703C85.1528 198.795 85.2297 197.81 84.5993 196.871C83.9382 195.887 82.6467 195.594 81.2169 196.071C79.5718 196.61 78.4648 197.81 77.3425 199.149C78.3716 199.656 79.3393 200.133 80.307 200.609L80.3098 200.611Z" fill="#3F0B01"/>
<path fill-rule="evenodd" clip-rule="evenodd" d="M146.651 198.61C146.329 200.211 145.929 201.78 144.93 203.119C144.022 204.335 142.823 204.673 141.639 204.073C140.425 203.473 139.764 201.873 140.209 200.534C140.655 199.21 141.578 199.01 142.823 199.426C143.331 199.595 143.746 199.241 143.992 198.764C144.176 198.41 144.207 198.072 143.976 197.733C143.638 197.256 143.192 197.21 142.685 197.364C142.377 197.456 142.07 197.564 141.778 197.702C139.718 198.81 138.457 201.657 139.041 203.935C139.048 203.962 139.056 203.99 139.064 204.017L139.064 204.018C139.165 204.386 139.259 204.726 138.887 205.012C137.119 206.197 136.489 206.027 135.566 204.073C135.32 203.565 135.105 203.042 134.89 202.519C134.459 201.503 134.014 200.472 133.183 199.749C132.584 199.226 132.676 198.81 132.922 198.179C133.618 196.455 134.475 194.798 135.33 193.146L135.33 193.145C135.627 192.572 135.923 191.999 136.212 191.424C138.216 188.245 140.35 185.171 142.495 182.081L143.069 181.252C140.256 184.145 137.873 187.346 135.905 190.855C133.091 195.256 130.969 199.964 129.678 205.042C129.661 205.105 129.646 205.166 129.631 205.227L129.631 205.227C129.549 205.556 129.474 205.86 129.201 206.12C127.771 207.428 126.111 207.874 124.051 207.674C124.191 207.517 124.33 207.366 124.466 207.218L124.466 207.218C125.117 206.509 125.699 205.875 126.08 205.073C126.803 203.581 126.68 202.119 125.711 201.242C124.773 200.395 123.39 200.334 121.975 201.18C121.5 201.465 121.054 201.787 120.593 202.119L120.593 202.12C120.382 202.272 120.167 202.426 119.946 202.58C119.937 202.522 119.926 202.47 119.917 202.423C119.894 202.309 119.878 202.226 119.9 202.15C120.099 201.534 120.315 200.918 120.545 200.318C122.144 196.102 124.681 192.44 127.418 188.9C128.632 187.6 129.843 186.3 131.053 185L131.054 185L131.054 185C132.265 183.699 133.475 182.399 134.69 181.099C134.058 181.018 133.727 181.324 133.401 181.625C133.29 181.727 133.181 181.829 133.06 181.914C132.83 182.299 132.491 182.607 132.122 182.868C131.915 183.076 131.707 183.288 131.5 183.499L131.5 183.499C131.292 183.711 131.085 183.922 130.877 184.13C130.754 184.253 130.635 184.376 130.516 184.499C130.397 184.622 130.277 184.746 130.154 184.869C129.647 185.461 129.144 186.054 128.64 186.646C128.137 187.238 127.633 187.831 127.126 188.423C122.974 193.117 119.807 198.379 117.978 204.412C117.863 204.781 117.747 205.146 117.632 205.511L117.632 205.512L117.632 205.512C117.516 205.878 117.401 206.243 117.286 206.612L117.285 206.616C117.178 206.968 117.084 207.274 116.686 207.458L116.564 207.516C115.707 207.918 114.787 208.349 113.965 207.658C113.145 206.975 113.555 206.005 113.891 205.211L113.903 205.181C115.338 201.788 117.469 198.804 119.601 195.819L119.601 195.818C119.732 195.636 119.862 195.453 119.992 195.271C122.621 191.578 125.727 188.285 128.909 185.084C129.055 184.992 129.205 184.896 129.355 184.799C129.505 184.703 129.655 184.607 129.801 184.515L130.585 183.822C130.785 183.661 130.981 183.495 131.177 183.33C131.373 183.164 131.569 182.999 131.769 182.837C131.842 182.684 131.975 182.567 132.107 182.448C132.335 182.246 132.565 182.041 132.507 181.653C131.31 182.173 130.37 183.033 129.431 183.892C129.092 184.203 128.753 184.513 128.402 184.807C122.513 190.147 117.655 196.333 113.673 203.211C112.873 204.596 112.012 205.889 110.629 206.766C109.322 207.582 108.215 207.566 107.292 206.72C106.354 205.843 106.139 204.196 106.831 203.011C107.446 201.965 108.492 201.688 109.476 202.411C109.998 202.796 110.475 202.934 111.028 202.55C111.413 202.273 111.659 201.888 111.52 201.411C111.321 200.749 110.736 200.672 110.152 200.641C108.23 200.534 105.939 202.134 105.078 204.212C104.494 205.596 104.694 207.043 105.617 207.951C106.677 208.997 107.892 208.89 109.107 208.351C109.758 208.062 110.388 207.699 111.02 207.334C111.298 207.174 111.577 207.013 111.859 206.858C111.92 209.228 112.089 209.567 114.365 209.259C116.799 208.928 119.213 209.017 121.639 209.105C122.263 209.128 122.887 209.151 123.513 209.167C125.388 209.213 127.11 208.628 128.617 207.505L128.64 207.487C129.211 207.067 129.558 206.81 129.801 207.797C129.939 208.351 130.539 208.474 131.108 208.459C132.245 208.459 133.106 207.843 133.891 207.135C134.367 206.704 134.69 206.427 135.213 207.089C135.643 207.612 136.304 207.582 136.904 207.351C137.919 206.966 138.718 206.32 139.133 205.289C139.192 205.28 139.246 205.263 139.299 205.246C139.442 205.199 139.582 205.154 139.794 205.289C141.762 206.551 142.977 206.397 144.53 204.689C144.879 204.3 145.198 203.881 145.551 203.416L145.551 203.416C145.758 203.144 145.977 202.856 146.221 202.55C146.267 205.935 146.098 209.059 145.714 212.183C145.329 215.322 144.299 218.23 142.746 221C143.468 220.826 143.737 220.315 143.997 219.82L143.997 219.82C144.036 219.746 144.075 219.672 144.115 219.6C145.944 216.368 146.759 212.829 147.174 209.182C147.361 207.514 147.393 205.834 147.425 204.142C147.477 201.369 147.53 198.568 148.266 195.748C147.143 196.517 146.867 197.548 146.651 198.61ZM120.73 207.643C118.844 207.612 118.275 206.786 119.023 205.166C119.531 204.073 120.238 203.165 121.299 202.55C122.467 201.888 123.712 202.073 124.497 202.98C125.204 203.796 125.219 205.135 124.558 206.15C123.574 207.643 122.129 207.889 120.745 207.643H120.73ZM130.939 205.489C130.954 206.489 131.584 206.935 132.568 206.766C133.276 206.643 134.306 206.397 134.09 205.596C133.691 204.104 133.045 202.642 131.861 201.257C131.215 202.78 130.923 204.119 130.939 205.489Z" fill="#3F0B01"/>
<path fill-rule="evenodd" clip-rule="evenodd" d="M150.526 101.68C154.923 107.205 157.844 113.391 159.228 120.331C161.011 129.271 158.967 137.119 152.847 143.875C151.095 145.814 148.927 147.275 146.498 148.245C142.562 149.815 138.487 150.83 134.183 150.692C127.479 150.461 121.606 148.06 116.256 144.182C113.411 142.12 110.905 139.704 108.691 136.996C108.23 136.411 107.907 136.442 107.277 136.704C100.681 139.458 94.0855 139.751 87.336 137.073C79.6026 134.011 75.5283 127.979 73.7909 120.285C70.5623 106.097 73.7448 93.2324 82.6314 81.7836C86.3367 76.9825 90.9183 73.1816 96.6223 70.8888C99.8202 69.6116 103.141 69.0576 106.231 69.1807C115.871 68.5652 124.22 75.1513 126.91 81.9221C127.325 82.9839 127.725 84.061 128.094 85.1382C128.217 85.5075 128.386 85.7383 128.771 85.8461C137.888 88.5851 144.745 94.4019 150.526 101.68ZM129.921 100.573C129.884 101.08 129.852 101.517 129.785 101.942L129.77 101.957C128.34 110.821 125.496 119.1 119.869 126.24C119.561 126.625 119.592 126.871 119.93 127.194C120.267 127.523 120.593 127.868 120.92 128.215C121.25 128.565 121.582 128.916 121.929 129.256C128.063 135.257 135.259 139.074 143.93 139.828C147.328 140.12 148.696 139.258 149.634 135.965C149.719 135.683 149.777 135.388 149.834 135.104L149.834 135.104L149.849 135.027C150.403 132.026 149.88 129.102 149.142 126.209C146.882 117.315 142.008 110.036 135.259 103.942C133.691 102.527 132.015 101.265 129.939 100.326L129.921 100.573ZM122.467 79.4908C125.25 82.4299 126.68 86.0461 127.341 89.9239C129.539 102.896 125.88 114.406 118.377 124.917C118.35 124.957 118.299 124.998 118.234 125.05L118.208 125.07C116.686 123.255 115.379 121.285 114.119 119.284C113.881 118.922 114.03 118.681 114.184 118.43L114.185 118.43C114.22 118.372 114.256 118.314 114.288 118.253C118.393 110.636 120.376 102.496 120.238 93.8787C120.13 87.2771 118.331 81.2296 114.073 76.0284C114.037 75.9804 114.001 75.9138 113.943 75.8065L113.943 75.8064L113.943 75.8062L113.943 75.8061L113.943 75.806L113.942 75.8049C113.926 75.775 113.908 75.7419 113.888 75.7053C117.317 75.8284 120.176 77.044 122.467 79.4754V79.4908ZM117.566 95.9454C117.577 95.5914 117.586 95.2944 116.978 95.2944V95.3251C116.75 95.3251 116.521 95.3249 116.293 95.3246C114.123 95.3219 111.953 95.3193 109.783 95.556C109.03 95.6483 108.645 95.9099 108.492 96.7255C107.892 99.7569 108 102.758 108.538 105.774C109.122 109.005 110.244 112.067 111.797 115.145C112.012 114.776 112.208 114.449 112.393 114.141L112.393 114.141C112.577 113.833 112.75 113.545 112.919 113.252C116.01 107.943 117.624 102.25 117.563 96.0945C117.563 96.0443 117.564 95.9945 117.566 95.9458L117.566 95.9454ZM110.152 92.6938L110.161 92.6776C111.418 92.5701 112.553 92.4627 113.688 92.3552C114.452 92.2857 115.21 92.3252 115.995 92.366C116.425 92.3885 116.864 92.4113 117.317 92.4168C117.132 90.9241 116.84 89.5238 116.486 88.1389C116.348 87.6003 116.179 87.5695 115.718 87.785C114.995 88.1235 114.288 88.4928 113.642 88.9545C112.232 89.9359 111.067 91.1312 110.161 92.6776L110.152 92.6784V92.6938ZM75.682 110.898C75.3745 116.592 76.2509 122.054 79.3258 126.994V127.009C82.7697 132.534 87.5359 136.119 94.3622 136.796C94.1417 136.624 93.9305 136.465 93.7281 136.312C93.3521 136.029 93.0062 135.768 92.6864 135.488C92.1483 135.027 91.6255 134.549 91.1643 134.026C87.1515 129.456 85.4757 123.962 84.8914 118.069C84.2303 111.452 85.2912 105.05 87.5974 98.8644C90.3956 91.4012 94.3468 84.6612 100.42 79.3523C105.247 75.1359 110.675 72.6276 117.317 74.1049C115.917 73.1201 114.457 72.3353 112.843 71.9198C105.955 70.1348 99.5127 71.3812 93.7319 75.3667C86.598 80.2909 81.8011 87.1079 78.7262 95.1559C76.8044 100.219 75.9895 105.512 75.682 110.898ZM93.5474 131.426C92.0099 131.641 91.1335 130.933 90.3956 129.579C87.7511 124.732 86.6134 119.546 86.7825 114.083C87.1669 101.65 91.8715 91.0011 100.451 82.076C103.003 79.4292 106.062 77.4441 109.614 76.29C110.213 76.09 110.567 76.1515 110.967 76.7055C112.643 79.0137 114.073 81.4604 115.149 84.1072C115.349 84.5842 115.379 84.7997 114.78 84.9689C105.094 87.5695 99.8049 94.3095 97.6063 103.681C96.0227 110.39 97.5602 116.807 100.143 123.039C100.508 123.916 100.93 124.772 101.35 125.625L101.35 125.625L101.351 125.625L101.351 125.625L101.351 125.626L101.351 125.626L101.351 125.626C101.55 126.03 101.749 126.434 101.942 126.84C101.966 126.892 101.997 126.942 102.028 126.992C102.153 127.196 102.275 127.396 101.942 127.656L101.794 127.767C99.6452 129.393 97.4961 131.018 94.7005 131.364C94.4443 131.395 94.1881 131.412 93.932 131.429L93.9317 131.429C93.8036 131.438 93.6755 131.446 93.5474 131.456V131.426ZM95.1771 134.75C98.6518 137.073 102.972 136.581 106.462 134.903H106.447C106.849 134.702 106.727 134.527 106.572 134.304L106.539 134.257C106.325 133.94 106.104 133.624 105.884 133.307L105.884 133.307C105.377 132.58 104.867 131.848 104.417 131.087C104.048 130.472 103.802 130.533 103.295 130.918C100.912 132.734 98.375 134.288 95.1771 134.75ZM140.01 147.953C133.26 148.891 127.233 146.937 121.652 143.305C115.656 139.412 110.352 134.796 106.493 128.702C102.265 122.024 99.3129 114.837 99.7587 106.805C100.143 99.7261 102.834 93.5863 109.122 89.5546C109.28 89.4527 109.447 89.3591 109.61 89.2678L109.61 89.2675C109.668 89.2348 109.726 89.2023 109.783 89.1699C109.798 89.1612 109.813 89.1518 109.828 89.1425C109.918 89.0865 110.003 89.0335 110.121 89.1391C110.232 89.2642 110.168 89.3391 110.098 89.4205C110.09 89.4292 110.083 89.438 110.075 89.4469C105.401 94.7096 105.509 100.865 106.831 107.189C109.245 118.7 119.715 133.826 133.552 139.412C138.288 141.32 143.146 142.32 148.266 141.628C149.988 141.397 151.617 140.889 153.216 140.151C150.018 144.767 145.498 147.199 140.01 147.953ZM152.663 138.012C155.277 136.411 156.768 134.026 157.368 131.087L157.383 131.056C158.367 126.24 157.706 121.485 156.291 116.869C153.032 106.251 146.282 98.2335 137.288 91.9859C134.813 90.2624 132.046 89.016 129.124 88.0619C129.121 88.0958 129.118 88.1266 129.115 88.1549C129.104 88.2681 129.097 88.342 129.109 88.4159C129.693 91.0011 130.016 93.6324 130.047 96.2946C130.047 96.7237 130.288 96.8682 130.58 97.0429C130.592 97.0498 130.604 97.0569 130.616 97.064C132.199 98.0334 133.737 99.0798 135.197 100.219C142.885 106.251 148.758 113.591 151.479 123.101C152.909 128.071 153.816 133.134 152.063 138.335C152.132 138.298 152.197 138.264 152.259 138.232C152.404 138.155 152.534 138.087 152.663 138.012Z" fill="#3F0B01"/>
</svg>
