<svg width="50" height="51" viewBox="0 0 50 51" fill="none" xmlns="http://www.w3.org/2000/svg">
<path d="M35.2111 16.7028L26.3889 10.8653V7.44444H30.5556V4.66667H26.3889V0.5H23.6111V4.66667H19.4444V7.44444H23.6111V10.8653L14.7889 16.7028C14.5976 16.8294 14.4406 17.0015 14.332 17.2036C14.2234 17.4058 14.1666 17.6317 14.1667 17.8611V23.9403L0.888889 29.0653C0.627205 29.1663 0.402227 29.3441 0.243563 29.5754C0.0848995 29.8067 -1.33768e-05 30.0806 1.58062e-09 30.3611V50.5H2.77778V31.3139L16.0556 26.1889C16.3172 26.0879 16.5422 25.9101 16.7009 25.6788C16.8595 25.4475 16.9445 25.1735 16.9444 24.8931V18.6069L25 13.2778L33.0556 18.6083V24.8944C33.0558 25.1982 33.1557 25.4935 33.3398 25.735C33.524 25.9766 33.7822 26.1511 34.075 26.2319L47.2222 29.8556V50.5H50V28.7986C50 28.4946 49.9003 28.199 49.7161 27.9572C49.532 27.7153 49.2736 27.5406 48.9806 27.4597L35.8333 23.8347V17.8611C35.8334 17.6317 35.7766 17.4058 35.668 17.2036C35.5594 17.0015 35.4024 16.8294 35.2111 16.7028Z" fill="white"/>
<path d="M15.2778 33.8335C15.2778 33.4651 15.1314 33.1118 14.871 32.8514C14.6105 32.5909 14.2572 32.4446 13.8889 32.4446C13.5205 32.4446 13.1673 32.5909 12.9068 32.8514C12.6463 33.1118 12.5 33.4651 12.5 33.8335V50.5001H15.2778V33.8335ZM36.1111 32.4446C36.4795 32.4446 36.8327 32.5909 37.0932 32.8514C37.3537 33.1118 37.5 33.4651 37.5 33.8335V50.5001H34.7222V33.8335C34.7222 33.4651 34.8685 33.1118 35.129 32.8514C35.3895 32.5909 35.7428 32.4446 36.1111 32.4446ZM25 33.8335C23.8949 33.8335 22.8351 34.2725 22.0537 35.0539C21.2723 35.8353 20.8333 36.8951 20.8333 38.0001V50.5001H29.1667V38.0001C29.1667 36.8951 28.7277 35.8353 27.9463 35.0539C27.1649 34.2725 26.1051 33.8335 25 33.8335Z" fill="white"/>
</svg>
