<svg width="25" height="25" viewBox="0 0 25 25" fill="none" xmlns="http://www.w3.org/2000/svg">
<g clip-path="url(#clip0_14_30)">
<path fill-rule="evenodd" clip-rule="evenodd" d="M0.5 12.3783C0.5 18.3443 4.833 23.3053 10.5 24.3113V15.6443H7.5V12.3113H10.5V9.64428C10.5 6.64428 12.433 4.97828 15.167 4.97828C16.033 4.97828 16.967 5.11128 17.833 5.24428V8.31128H16.3C14.833 8.31128 14.5 9.04428 14.5 9.97828V12.3113H17.7L17.167 15.6443H14.5V24.3113C20.167 23.3053 24.5 18.3453 24.5 12.3783C24.5 5.74128 19.1 0.311279 12.5 0.311279C5.9 0.311279 0.5 5.74128 0.5 12.3783Z" fill="#3F0B01"/>
</g>
<defs>
<clipPath id="clip0_14_30">
<rect width="24" height="24" fill="white" transform="translate(0.5 0.311279)"/>
</clipPath>
</defs>
</svg>
