<svg width="81" height="100" viewBox="0 0 81 100" fill="none" xmlns="http://www.w3.org/2000/svg">
<path d="M13.6221 44.4735C13.4543 43.9329 13.3052 43.3924 13.1374 42.8519C13.1002 42.6655 12.9511 42.4604 13.2679 42.3859C14.0321 43.4856 14.7032 44.6412 14.9268 46.0019C14.9641 46.2256 14.8895 46.5238 15.2437 46.5797C15.691 46.4679 16.157 46.5052 16.623 46.5238C16.7348 46.7475 16.6603 46.8966 16.4366 46.9898C15.0387 47.1203 14.3863 48.3505 14.8709 49.9162C15.5606 52.1156 17.4245 52.8053 19.3816 51.5937C20.5373 50.8668 21.432 49.8789 22.2521 48.8164C22.979 47.8658 23.6687 46.8966 24.5634 46.1137C25.0293 45.7223 25.0293 45.5173 24.4142 45.3495C23.2772 45.014 22.1589 44.6226 21.0778 44.1193C18.021 42.6655 16.2129 40.1864 15.3183 37.0178C14.8523 35.4148 14.5727 33.7559 14.1999 32.1156C14.1999 31.3887 14.5727 31.8733 14.7964 31.9292C15.691 33.9982 15.8402 36.2908 16.7348 38.3598C16.8467 38.453 16.9585 38.7139 17.0331 38.3411C17.1449 37.3905 17.1635 36.4213 17.5177 35.5266C17.9464 35.4334 18.0955 35.5825 18.0396 36.0299C17.9464 36.7382 18.0396 37.4465 17.965 38.1734C17.9091 38.6767 18.0769 39.1426 18.3937 39.5527C19.363 41.8081 21.0778 43.0569 23.4636 43.467C23.65 43.5229 23.8364 43.5974 23.7992 43.2806C22.9045 41.8267 22.979 40.3915 24.0228 39.0681C25.5512 37.1482 25.3462 35.1911 24.377 33.1408C24.3397 33.0662 24.3024 32.973 24.2279 32.8425C24.9548 32.973 25.2903 33.4763 25.5326 34.0355C26.0172 35.1538 26.1477 36.3281 25.924 37.5397C25.8681 37.8379 25.8308 38.0616 26.1104 38.2666C26.5578 38.5835 26.7442 39.0681 26.8746 39.5713C26.8187 39.6645 26.7628 39.795 26.6137 39.7205C26.2223 39.3104 25.7749 39.0494 25.2344 39.329C24.582 39.6459 24.1347 40.1678 24.0601 40.932C23.8737 42.8519 25.1785 44.2498 27.2288 44.3616C28.3471 44.4176 29.391 44.1566 30.4534 43.8584C33.417 43.001 36.0825 43.5415 38.4683 45.4614C38.6174 45.5732 38.7665 45.7037 39.0461 45.7037C38.7852 43.5415 38.021 41.6403 36.4553 40.0932C36.1198 39.4222 35.3555 39.329 34.8709 38.863C34.7218 38.7326 34.1999 38.9376 34.4609 38.4157C34.5168 38.3039 34.3863 38.3784 34.3677 38.3784C33.9389 38.6394 33.5662 38.2293 33.1747 38.2479H33.1002L33.0443 38.2107C33.2679 37.5024 33.8644 37.7447 34.3304 37.7633C34.61 37.7633 34.8896 37.9124 35.1878 37.9124H35.2437L35.281 37.9311C35.6165 38.192 35.9147 38.5089 36.3621 38.5089C37.1449 38.8444 37.8159 39.3663 38.4869 39.8509C38.8597 40.1119 39.0648 40.1305 39.0461 39.59C39.0461 36.9059 38.4869 34.371 36.9026 32.1342C36.8653 32.0783 36.8094 32.0038 36.7721 31.9479C36.0825 31.1091 35.1878 30.7549 34.5168 31.0532C33.8458 31.3328 33.5289 32.2461 33.6966 33.3458C33.7712 33.8118 33.8644 34.2591 33.939 34.7624C32.7647 33.7 32.3919 32.4698 32.8579 31.2955C33.473 29.7671 35.2251 29.2638 36.623 30.1958C37.7787 30.96 38.3751 32.1156 38.9529 33.3085C39.0089 33.3458 39.0461 33.4017 39.102 33.4576C39.1393 33.5136 39.0834 33.6254 39.1766 33.6627C39.1393 33.5881 39.1393 33.5322 39.1766 33.4576C39.1766 33.3831 39.2325 33.3272 39.2698 33.2712C39.2698 30.3262 38.3192 27.6608 36.7349 25.2191C35.486 23.2992 34.1253 21.4726 32.8392 19.5713C31.8886 18.1548 31.4786 16.6077 31.8513 14.8929C31.9445 14.3896 31.9445 13.905 31.8513 13.4017C31.7954 13.0103 31.7395 12.6002 31.6836 12.2088C31.7395 12.1529 31.7954 12.1342 31.87 12.1715C32.4105 13.3458 32.541 14.5946 32.5969 15.8621C32.6342 16.6077 32.6901 17.3533 33.0629 18.0243C33.2307 18.3411 33.4357 18.6767 33.7339 18.0802C33.9203 17.6888 34.3117 17.4651 34.7218 17.316C35.6538 17.0178 36.2502 17.4092 36.4366 18.5275C35.9893 18.0056 35.5047 17.8006 34.9455 18.2293C34.3677 18.6767 34.2185 19.6086 34.6286 20.261C34.8709 20.6338 35.1691 20.9693 35.4487 21.3234C36.6976 22.8705 37.9091 24.4362 39.0648 26.0578C39.2698 25.9087 39.2884 25.741 39.3071 25.5918C39.3816 23.411 39.4935 21.2116 39.1952 19.0308C38.9902 17.4651 38.1514 16.1603 37.5363 14.7438C37.4618 14.5574 37.3313 14.4082 37.3686 14.1846C37.294 13.9982 37.3686 13.7745 37.1263 13.6813C37.0517 13.4576 36.884 13.2526 36.9399 12.973C36.9399 12.6934 36.6789 12.3579 37.1076 12.1715C37.2008 12.4138 37.2008 12.7121 37.3872 12.9171C37.5363 13.5695 38.021 13.9982 38.3751 14.5014C39.2884 15.8062 40.0527 17.1669 40.5932 18.7139C41.2269 17.0923 41.9911 15.5825 43.0536 14.2405C43.24 14.1473 43.5009 14.0727 43.3518 13.7559C43.6873 12.8798 44.1347 12.0411 44.4702 11.1464C44.4515 12.2274 44.2279 13.2712 43.7619 14.2219C42.308 17.1669 41.5065 20.2237 41.8048 23.5415C41.8793 24.3616 41.8979 25.2004 41.9352 26.0205C42.0284 26.0205 42.0657 26.0205 42.0843 26.0205C43.5568 24.1007 45.048 22.1808 46.5205 20.2424C46.9865 19.6459 46.7815 19.0308 46.5205 18.4157C46.5578 17.987 46.3341 17.8938 45.9427 17.8565C45.6445 17.8192 45.2344 18.0988 45.0107 17.6515C45.0294 17.4837 45.1226 17.3719 45.3089 17.3533C45.719 17.2787 46.1477 17.3533 46.5578 17.3533C46.856 17.5956 47.2474 17.7447 47.4152 18.1361C47.5457 18.2479 47.5457 18.5835 47.8439 18.3598C48.4776 17.6328 48.5522 16.7382 48.5895 15.8435C48.6267 14.8742 48.7013 13.905 48.9063 12.9544C48.9995 12.563 49.1487 12.2274 49.4655 11.9292C49.1114 13.6813 49.6146 15.4334 49.3164 17.1482C49.0555 18.7326 48.0489 19.9814 47.1356 21.2489C45.7004 23.2246 44.1719 25.1631 43.1654 27.4371C42.3453 29.2638 41.8607 31.165 41.8793 33.1781C41.9539 33.5695 42.0657 33.2712 42.1589 33.1781C42.7181 32.0783 43.2959 30.9786 44.3211 30.1958C45.8495 29.0588 47.8066 29.6739 48.3658 31.4819C48.5895 32.1902 48.2353 32.8053 48.1048 33.4576C47.8625 33.4949 47.8253 33.6813 47.8066 33.8677C47.6575 34.0541 47.527 34.2219 47.3779 34.4082C47.3406 34.4082 47.2847 34.3896 47.2474 34.371C47.3034 33.905 47.322 33.439 47.4152 32.9917C47.5084 32.4884 47.4152 32.0038 47.2102 31.5564C46.856 30.7922 46.0172 30.6245 45.1785 31.1277C44.0228 31.836 43.5009 33.0103 43.0163 34.1659C42.308 35.8808 42.0657 37.7074 42.0284 39.5527C42.0284 39.7018 41.9539 39.8696 42.1216 39.9628C42.2894 40.056 42.3826 39.8882 42.4944 39.8137C44.6379 38.1548 47.1356 37.1482 49.6146 36.1231C50.6584 35.6944 51.5718 35.042 52.2428 34.11C53.1002 32.8985 53.1375 31.4632 52.3546 30.1958C51.609 29.0028 51.1058 27.7167 51.0499 26.2815C51.0499 26.0392 50.9939 25.7782 50.9567 25.5359C50.8076 24.4921 50.4534 24.0261 49.7451 23.877C48.9995 23.7093 48.1794 24.138 47.6948 24.9208C47.6389 25.0327 47.5643 25.1259 47.5084 25.2377C47.0983 25.0513 47.3034 24.7344 47.3406 24.4548C47.7321 23.2433 49.1859 22.5723 50.5839 23.0942C51.2549 23.3551 51.4786 23.1501 51.7209 22.5723C52.2614 21.2862 52.2987 19.9814 51.9073 18.658C51.87 18.5462 51.8514 18.4157 51.8327 18.3039C51.8327 18.2293 51.8327 18.1734 51.87 18.0056C52.8392 19.1426 52.9884 20.3728 52.8206 21.7335C52.6715 22.8705 52.0564 23.877 51.9446 25.0327C51.7209 27.1203 52.4665 28.9283 53.6407 30.5872C53.9203 30.9786 54.1254 30.9041 54.3117 30.5126C54.815 29.4688 55.0946 28.3877 55.2624 27.2507C55.5792 25.1259 56.623 23.2992 57.8346 21.5657C57.8719 21.5098 58.021 21.5285 58.1142 21.5098C58.1142 22.0876 57.76 22.535 57.5177 23.0196C56.6044 24.7904 56.1384 26.6729 55.8961 28.6301C55.3928 32.6934 53.212 35.5266 49.596 37.3346C48.5522 37.8565 47.5084 38.3598 46.4459 38.8444C43.5941 40.1678 42.4571 42.6096 42.0284 45.7037C43.24 44.9208 44.2465 44.0448 45.5326 43.7279C45.5885 43.7279 45.6258 43.7279 45.6817 43.7466C45.9613 43.8025 46.2409 43.3365 46.4646 43.672C46.5764 43.8584 46.5578 44.2125 46.2968 44.4176C46.3714 44.4921 46.5391 44.5108 46.4459 44.6785C44.6938 45.3495 43.3891 46.5238 42.513 48.1827C42.4571 48.2946 42.4198 48.4064 42.3826 48.5182C42.3639 48.6673 42.3826 48.7792 42.5876 48.7233C44.6007 47.549 46.6883 47.288 48.8691 48.2014C48.8691 48.22 48.8877 48.2386 48.9063 48.2573C49.0182 48.6301 48.7199 48.5369 48.5522 48.5741C48.6267 48.7792 48.9623 48.8724 48.8131 49.1706C48.8131 49.1706 48.7759 49.1706 48.7572 49.1706C48.7386 49.1706 48.7199 49.152 48.7013 49.1333C48.2353 49.0774 48.0862 49.1892 48.2912 49.6925C48.8504 51.0718 48.7199 52.4138 47.8439 53.644C47.6202 53.9609 47.4152 54.3151 47.1915 54.6319C46.8374 55.1538 46.7442 55.713 47.061 56.3467C46.1291 55.8248 45.9613 54.6133 46.7255 53.6813C47.527 52.6934 47.788 51.6496 47.527 50.4194C47.2288 49.0401 46.185 48.3877 44.8243 48.7792C43.3145 49.2079 42.1403 50.6804 42.1403 52.2647C42.1403 58.5648 42.3639 64.8649 42.5317 71.1464C42.6435 75.6012 42.774 80.056 42.8858 84.5108C42.9231 86.3001 43.2586 88.015 44.0788 89.6179C45.0853 91.5937 46.4646 93.1967 48.5895 94.0727C49.6519 94.5014 50.7889 94.4083 51.8886 94.5574C53.9017 94.837 55.9147 95.1165 57.8159 95.918C58.4683 96.1976 59.0834 96.5145 59.5867 96.9991C59.8663 97.2601 60.0899 97.5397 60.2204 97.9124C60.5186 98.7139 60.2577 99.4595 59.624 99.6646C58.9157 99.8882 58.3751 99.5341 58.0769 98.658C58.226 98.6207 58.2819 98.7699 58.3565 98.8444C58.5802 99.0681 58.8225 99.1426 59.0834 98.919C59.3257 98.7139 59.3444 98.453 59.2139 98.1734C59.0089 97.6888 58.5988 97.3905 58.1701 97.1482C56.3248 96.1231 54.3117 95.7876 52.2241 95.7876C51.7954 95.7876 52.0377 95.9367 52.1309 96.0858C52.5969 96.6823 52.5969 96.7195 52.1309 96.9991C50.6398 95.918 48.9063 96.0858 47.2288 95.974C47.117 96.3467 47.4338 96.4399 47.5829 96.6077C48.0862 97.1482 48.3285 97.7633 48.2726 98.5089C48.2167 99.124 47.8998 99.5341 47.2847 99.6646C46.7069 99.7764 46.39 99.385 46.1291 98.9563C46.3527 98.7139 46.4646 98.9563 46.6137 98.9935C47.0797 99.0867 47.3406 98.9376 47.3593 98.4343C47.3966 97.8752 47.1542 97.4278 46.7442 97.055C45.6631 96.0672 44.3024 95.7689 42.9231 95.5639C40.6864 95.2284 38.4683 95.3216 36.2875 95.9926C35.691 96.179 35.1505 96.4586 34.6286 96.8127C34.3117 97.0178 34.0881 97.316 33.9017 97.6515C33.678 98.0429 33.6221 98.4903 33.8644 98.8444C34.1626 99.2731 34.554 98.9935 34.9828 98.7699C34.7964 99.4409 34.4422 99.7391 33.883 99.6832C33.3425 99.6273 32.9511 99.2918 32.8579 98.7512C32.7274 98.0429 32.8579 97.3719 33.3798 96.8127C33.5662 96.6077 33.7339 96.4027 33.939 96.179C33.5662 95.8621 33.1375 96.1604 32.7833 95.9926C32.0191 96.1604 31.199 95.8994 30.472 96.2722C30.1738 96.384 29.8756 96.4772 29.5773 96.5891C29.1673 96.7195 28.9622 96.5518 28.9622 96.1231C29.2046 95.8808 29.13 95.7689 28.8131 95.7876C28.0489 95.8435 27.2661 95.8808 26.5205 96.0112C25.253 96.2163 23.9855 96.5145 22.8672 97.2041C22.5876 97.3719 22.3453 97.5769 22.1216 97.8193C21.8607 98.0988 21.6556 98.453 21.8607 98.8258C22.0657 99.2172 22.4571 99.0494 22.9045 98.9376C22.6622 99.6086 22.2521 99.795 21.6929 99.7577C21.0592 99.7018 20.7796 99.2731 20.7423 98.7139C20.6677 97.8379 21.2083 97.2787 21.8234 96.7941C22.9417 95.9553 24.2465 95.5825 25.5699 95.247C27.3033 94.8183 29.0741 94.6133 30.8635 94.4828C33.1375 94.3337 34.6845 92.973 36.0079 91.3141C36.2316 91.0345 36.418 90.7549 36.6044 90.4567C36.828 90.289 36.9585 90.0653 36.9772 89.8043C38.2633 87.1762 38.1887 84.343 38.2633 81.5285C38.4497 74.0727 38.6361 66.617 38.8225 59.1613C38.8784 57.2228 38.897 55.2843 38.9529 53.3458C38.9902 52.3952 38.8784 51.4632 38.4683 50.6058C38.4497 50.2144 38.3378 49.9534 38.9716 49.8043C39.4935 49.6739 39.0275 49.2452 38.7665 49.0028C38.5615 48.8164 38.5801 48.5555 38.5242 48.3318C37.3313 46.0578 35.5606 44.6226 32.8951 44.6412C30.2484 44.6599 27.732 45.3123 25.5326 46.8407C24.2465 47.7354 23.3518 49.0028 22.3826 50.1958C21.3015 51.5005 20.2018 52.768 18.7106 53.6254C17.9278 54.0727 18.0396 54.8929 17.8905 55.6012C17.7786 56.1603 17.8905 56.7382 18.0396 57.2973C18.0769 57.5769 17.9464 57.6888 17.6668 57.6515C16.9212 56.9059 16.828 55.9553 16.9026 54.9674C16.9212 54.6319 16.9585 54.371 16.5298 54.3896C14.8895 54.4455 13.4543 53.8491 12.1309 52.9357C11.9818 52.8239 11.7768 52.768 11.609 52.6934C11.5717 52.302 11.7954 52.1343 12.1496 52.1156C12.6155 52.4511 13.1561 52.6748 13.6966 52.8612C13.9949 53.234 14.4422 52.9917 14.7964 53.1408C15.1505 53.0849 15.5419 53.234 15.8961 52.9544C15.691 52.6002 15.2996 52.4325 15.0387 52.1529C14.0508 51.165 13.5475 49.9907 13.6966 48.5928C13.8085 47.4185 13.7712 46.2629 13.6966 45.0886C13.6966 44.8835 13.6594 44.6785 13.5848 44.4921L13.6221 44.4735Z" fill="white"/>
<path d="M46.4646 44.7902C45.98 44.5106 46.4273 44.1378 46.4087 43.8396C46.0918 43.6345 45.8309 44.2496 45.5513 43.8396C47.2474 43.1313 48.9436 43.3922 50.6398 43.8023C52.0191 44.1378 53.3798 44.5479 54.815 44.1751C56.4553 43.7464 57.4991 41.9011 56.9213 40.4286C56.8467 40.2422 56.7721 40.0558 56.6603 39.9067C55.9707 38.9747 55.0014 38.9933 54.349 39.9626C54.1813 39.3661 54.3118 38.9001 54.8709 38.3969C55.1878 38.1173 55.2437 37.875 55.1878 37.4463C55.0387 35.8992 55.0573 34.3708 56.2316 33.1406C56.2875 33.066 56.3994 33.0474 56.4739 32.9915C56.7162 32.9728 56.7349 33.066 56.623 33.2524C56.0079 34.5758 55.8402 35.9551 56.1757 37.3904C56.2875 37.8936 56.5671 38.285 56.8653 38.6951C57.6296 39.7389 58.2447 40.8386 57.8346 42.2179C57.7041 42.628 57.4804 43.0194 57.294 43.4295C59.9036 43.4295 62.3826 41.4724 62.9045 38.9188C63.1841 37.5581 63.2214 36.1974 62.6063 34.9113C62.2707 34.2217 61.8048 33.6625 61.0778 33.3643C60.034 32.9356 59.2512 33.327 58.9902 34.4267C58.897 34.8181 58.897 35.2096 58.8598 35.601C58.2074 35.2282 58.0023 34.5945 58.3006 33.7371C58.7106 32.5814 59.7172 32.1527 61.3761 32.4323C61.1897 31.3139 60.9101 30.2142 61.1151 29.0772C61.2269 28.4808 61.3761 27.9029 61.7488 27.437C62.0098 27.0828 62.4012 26.8405 62.8486 26.9523C63.3146 27.0642 63.7246 27.2878 63.8551 27.9589C63.3891 27.6793 62.9418 27.5302 62.5317 27.847C62.0844 28.1825 61.9352 28.6858 61.898 29.2263C61.8048 30.4938 61.9539 31.724 62.569 32.8424C63.5755 34.669 64.0788 36.6075 64.1347 38.7324C64.4888 38.5646 64.5075 38.2664 64.6007 38.0055C65.1412 36.533 65.3835 34.9859 65.7936 33.4761C66.1664 32.0968 66.7255 30.792 67.9185 29.8973C68.1421 29.7296 68.3658 29.5059 68.7386 29.5991C68.5895 29.9719 68.2726 30.121 68.0489 30.3633C66.8933 31.5935 66.6137 33.1779 66.3714 34.7436C65.5326 39.9999 62.8486 43.6532 57.555 45.1443C57.1263 45.2562 56.7162 45.4239 56.2875 45.573C56.2502 45.573 56.213 45.6289 56.1198 45.7221C57.35 46.8591 58.3379 48.1825 59.363 49.4873C60.0527 50.3447 60.8355 51.1089 61.7861 51.6867C62.7927 52.3018 63.8178 52.6746 64.8989 51.8731C66.0359 51.0157 66.6137 49.8787 66.3341 48.4248C66.1664 47.5488 65.514 47.0642 64.6193 47.1015C64.4329 47.1015 64.2279 47.1947 63.9856 47.0828C64.1906 46.5236 64.6193 46.4118 65.1412 46.5236C65.3835 46.6728 65.6817 46.5236 65.9241 46.6355C66.2036 46.505 66.1477 46.2254 66.2036 45.9831C66.5578 44.4174 67.1356 42.9635 68.5336 41.696C68.0862 42.8517 67.6389 43.765 67.4898 44.7902C67.3593 45.7221 67.2288 46.6728 67.3406 47.6047C67.6202 49.711 67.1729 51.5003 65.3649 52.7865C65.2903 52.8424 65.253 52.9356 65.0853 53.1779C67.2474 53.2338 68.8691 52.395 70.267 50.9971C70.6398 50.9598 70.8821 51.0716 70.8448 51.4817C70.7516 51.8545 70.8262 52.0968 71.199 52.3205C71.87 52.7305 72.2614 53.3829 72.131 54.203C72.0191 54.9486 71.6091 55.5078 70.6957 55.7687C70.8821 55.5264 70.9753 55.396 71.0685 55.2655C71.4599 54.6877 71.6091 54.0726 71.2176 53.4575C70.8448 52.8797 69.9129 52.6187 69.2046 52.8797C68.8877 52.9915 68.5895 53.1779 68.2913 53.3643C67.1729 54.0726 65.98 54.5199 64.6379 54.4267C64.1533 54.3894 64.0415 54.5572 64.0974 55.0045C64.2279 56.2161 64.0228 57.3158 62.8858 58.0427C62.7367 57.9682 62.6435 57.8564 62.7181 57.67C63.5382 56.477 63.1468 55.2655 62.7554 54.0539C62.7181 53.9607 62.6435 53.8862 62.569 53.8303C60.5187 52.7305 59.1393 50.9039 57.7787 49.1331C55.2437 45.834 51.7395 44.7715 47.788 44.697C47.3406 44.697 46.9119 44.7902 46.4646 44.8461V44.7902Z" fill="white"/>
<path d="M35.1877 37.8751C34.6845 38.2479 34.1812 37.7073 33.6406 37.8751C33.417 37.9496 33.156 37.9124 33.0256 38.1733C30.5652 37.0177 28.2166 35.6943 26.7255 33.2712C25.9799 32.0596 25.5885 30.7362 25.3275 29.3755C24.9734 27.5675 24.787 25.7222 24.0041 24.0074C24.1719 23.8769 23.594 23.0009 24.4515 23.5414C24.6192 24.1752 24.9734 24.6971 25.2716 25.2749C25.7376 26.2069 25.8121 27.232 25.9985 28.2199C26.1476 29.0587 26.4645 29.8415 26.8 30.6057C26.9678 30.9972 27.1728 31.1276 27.4524 30.7176C28.9249 28.5554 29.745 26.2628 28.7758 23.6346C28.2912 22.3112 28.0116 20.9692 28.3844 19.5526C28.3844 19.534 28.3844 19.4967 28.3844 19.4781C28.5148 19.0866 28.6826 18.4342 28.9808 18.5088C29.3909 18.602 28.9808 19.1053 28.9435 19.4221C28.8503 20.6523 28.9435 21.8452 29.5027 22.9636C29.6891 23.3364 29.8382 23.4296 30.2297 23.2246C30.7888 22.945 31.4039 22.9822 31.9817 23.0754C33.3238 23.2991 33.9762 24.2684 33.8643 25.89C33.6779 26.0018 33.6593 25.8341 33.5847 25.7409C33.5475 25.1444 33.2119 24.7157 32.8019 24.3616C31.814 23.4855 30.4906 23.9142 30.1365 25.219C29.9128 26.0205 30.0619 26.8592 29.8382 27.6607C29.5959 28.5368 29.335 29.3942 28.7944 30.1211C27.6015 31.7241 28.1234 33.7371 29.54 35.0046C30.6211 35.9739 31.9817 36.4026 33.2679 36.9618C33.9016 37.2413 34.554 37.465 35.1318 37.8564L35.1877 37.8751Z" fill="white"/>
<path d="M38.8784 48.9656C39.4935 49.2079 39.6612 49.7111 39.2511 50.1585C39.2139 50.1958 39.102 50.2703 39.0834 50.2517C38.3751 49.6366 38.7479 50.5685 38.5056 50.6431C37.9277 49.8416 37.2567 49.1706 36.2688 48.9096C34.9082 48.5555 33.8644 49.2452 33.5848 50.6058C33.3238 51.836 33.6034 52.8798 34.4049 53.8677C35.1318 54.7624 35.02 55.8248 34.0135 56.6077C34.5354 55.6198 34.1067 54.9674 33.6407 54.3337C32.5969 52.9357 32.1123 51.4632 32.8578 49.7484C33.0256 49.3756 32.8392 49.2824 32.4478 49.3756C30.8448 49.7857 29.9874 50.9786 29.3723 52.3766C28.9436 53.3831 28.8131 54.4642 29.2977 55.5266C29.335 55.9553 29.0741 56.0485 28.7199 55.9926C28.5708 55.8808 28.4962 55.7503 28.5335 55.5639C28.4217 55.4148 28.4403 54.8929 28.0862 55.3961C27.5084 56.6077 26.8373 57.7633 25.8495 58.6953C25.2903 59.2172 24.6379 59.3663 23.9482 59.0867C23.3145 58.8258 23.0908 58.3039 23.2027 57.5397C23.5382 58.0243 23.7991 58.5648 24.4329 58.4903C25.0852 58.4157 25.5326 57.9684 25.924 57.4651C26.7814 56.3281 27.3592 55.042 27.8066 53.7C28.4217 51.9106 29.2977 50.289 30.8634 49.1333C33.0815 47.5117 35.4674 47.3626 37.9464 48.5182C38.0955 48.5928 38.2633 48.6487 38.431 48.7046C38.6547 48.686 38.7292 48.9469 38.9156 48.9842L38.8784 48.9656Z" fill="white"/>
<path d="M48.6826 49.2639C48.5086 48.9657 48.5707 48.6426 48.869 48.2947C50.8074 49.1521 52.0749 50.6619 52.8951 52.5631C53.4729 53.9238 53.827 55.3776 54.6658 56.6265C55.225 57.4652 55.7282 58.3972 56.9025 58.509C57.0516 58.5836 57.1075 58.4158 57.2007 58.3786C57.3685 58.2294 57.5176 58.0803 57.7599 57.8567C57.8345 58.4158 57.5922 58.77 57.238 58.975C56.6602 59.3105 56.0451 59.2546 55.4859 58.8632C54.7217 58.2854 54.1998 57.5025 53.7152 56.6824C53.417 56.1978 53.1374 55.7131 52.8019 55.154C52.4477 55.8995 52.224 56.6637 51.3294 56.8129C50.8074 56.9061 50.5092 56.5333 50.1737 56.2723C50.1178 56.1978 50.1178 56.1418 50.1737 56.0859C51.143 56.3469 51.7208 55.9554 51.9444 54.893C52.3359 53.1782 51.6462 51.7989 50.5838 50.5687C50.0619 49.9536 49.4095 49.5435 48.6453 49.2639H48.6826Z" fill="white"/>
<path d="M18.3752 39.5529C17.7228 39.292 17.7042 38.6955 17.816 38.1736C17.9465 37.5399 17.8719 36.8875 17.9465 36.2538C17.9838 35.8624 17.8347 35.6387 17.4992 35.5082C17.6296 34.5576 18.0956 33.7375 18.5243 32.8987C19.1021 31.799 19.3258 30.6061 19.2699 29.3759C19.1953 28.0152 18.7294 27.6238 17.2009 27.717C17.5364 27.2323 17.9279 26.8409 18.5057 26.8782C19.1394 26.9341 19.4936 27.4187 19.7172 27.9593C20.2764 29.3013 20.1087 30.6806 19.8104 32.0413C19.7918 32.1345 19.7732 32.2277 19.7172 32.3954C21.0965 31.9854 22.1776 32.3022 22.7927 33.607C23.1469 34.3712 22.9605 34.9863 22.2708 35.6573C22.0472 35.2286 22.3081 34.744 22.1217 34.2966C21.7116 33.1037 20.7424 32.7682 19.68 33.4952C18.6175 34.2221 18.1888 35.3032 18.077 36.5334C17.9838 37.5585 18.1329 38.5464 18.3752 39.5343V39.5529Z" fill="white"/>
<path d="M55.6539 7.66088C57.5365 7.79136 58.077 6.69164 58.1516 5.18185C58.1516 4.95818 58.2634 4.75315 58.3566 4.43628C58.5057 5.16321 58.6735 5.79695 58.748 6.41205C58.8412 7.04579 59.1394 7.36265 59.7732 7.45585C60.1833 7.51177 60.5747 7.66088 60.9847 7.77272C60.7424 8.05231 60.3696 8.08959 60.0901 8.10823C59.1022 8.18279 58.748 8.72333 58.6735 9.63665C58.6362 10.1213 58.4684 10.6059 58.3193 11.2583C58.1329 10.4195 57.9465 9.76713 57.872 9.09611C57.8161 8.57421 57.5365 8.36918 57.1078 8.25734C56.6604 8.14551 56.2131 7.99639 55.7657 7.88456C55.7285 7.81 55.6912 7.73544 55.6353 7.67952L55.6539 7.66088Z" fill="white"/>
<path d="M25.57 7.80969C24.8617 8.01472 24.3584 8.18248 23.8365 8.29431C23.4824 8.36887 23.3519 8.53662 23.296 8.87213C23.1655 9.6177 22.9791 10.3446 22.7741 11.258C22.6063 10.4378 22.4013 9.78546 22.3454 9.13308C22.2894 8.55526 21.9726 8.33159 21.4879 8.20111C21.0592 8.08928 20.6305 7.97744 20.1646 7.84697C20.5187 7.54874 20.9101 7.49282 21.2643 7.45554C22.0285 7.34371 22.3267 6.93364 22.4199 6.20671C22.4758 5.64753 22.6249 5.08835 22.7741 4.34277C22.9605 5.18154 23.1282 5.83392 23.2214 6.4863C23.296 7.06412 23.5755 7.34371 24.1347 7.41826C24.5448 7.47418 24.9362 7.6233 25.57 7.80969Z" fill="white"/>
<path d="M6.40869 20.0932C8.36582 20.2424 8.85044 19.124 8.98092 17.6701C8.98092 17.4651 9.09276 17.2601 9.18595 16.9805C9.27915 17.316 9.39099 17.5769 9.39099 17.8379C9.46554 19.3104 10.1366 20.1678 11.87 20.0932C11.3108 20.5779 10.7517 20.5779 10.267 20.7083C9.91289 20.8015 9.72649 20.9506 9.67058 21.3421C9.55874 22.0504 9.37235 22.7587 9.18595 23.6534C8.99956 22.8146 8.79453 22.1436 8.70133 21.4725C8.64541 20.9879 8.44038 20.8015 7.9744 20.6897C7.50841 20.5779 7.00515 20.5592 6.40869 20.0932H6.40869Z" fill="white"/>
<path d="M69.2605 20.0935C71.1803 20.2799 71.6277 19.1243 71.7582 17.6331C71.7582 17.4094 71.87 17.2044 71.9446 16.8689C72.131 17.6331 72.3173 18.2855 72.4292 18.9565C72.5224 19.497 72.7833 19.758 73.3052 19.8512C73.7153 19.9257 74.0881 20.0749 74.5727 20.2053C74.0508 20.5408 73.5103 20.5781 72.9884 20.7272C72.6529 20.8204 72.5037 20.9695 72.4478 21.3237C72.336 21.9947 72.1496 22.6657 71.9632 23.4486C71.5904 22.7589 71.6091 22.0693 71.4786 21.4542C71.3854 20.9695 71.1803 20.7832 70.733 20.7086C70.267 20.6154 69.801 20.429 69.3537 20.2985C69.3164 20.224 69.2978 20.1681 69.2605 20.0935H69.2605Z" fill="white"/>
<path d="M0.518639 37.5398C2.58761 37.3534 3.14679 36.0673 3.14679 34.3152C3.42638 35.098 3.65005 35.8063 3.74324 36.5705C3.78052 36.8688 3.96692 36.962 4.22787 37.0365C4.76841 37.1856 5.30895 37.3534 5.86813 37.5212C5.81221 37.5584 5.79357 37.6143 5.75629 37.6143C3.85508 37.6703 3.37046 38.975 3.37046 40.7085C2.79264 40.2052 2.92311 39.646 2.84856 39.1801C2.73672 38.4158 2.47577 37.9499 1.637 37.8939C1.28285 37.8753 0.947344 37.6889 0.5 37.5584L0.518639 37.5398Z" fill="white"/>
<path d="M42.4385 3.67195C42.4385 3.67195 42.4013 3.69059 42.364 3.69059C41.4693 3.82106 40.9101 4.23113 40.9101 5.25629C40.9101 5.74091 40.7051 6.22554 40.556 6.822C40.3696 6.0205 40.1645 5.34949 40.09 4.65983C40.0341 4.15657 39.7918 3.98882 39.3817 3.87698C38.8971 3.76514 38.4311 3.63467 37.9092 3.50419C38.2633 3.20597 38.692 3.16869 39.0648 3.11277C39.7918 3.00093 40.0527 2.55359 40.1645 1.91985C40.2764 1.34203 40.3882 0.764213 40.556 0C40.7051 0.708295 40.8356 1.24884 40.9474 1.77074C41.227 3.09413 41.0033 2.87046 42.5131 3.24324C42.5877 3.24324 42.6622 3.28052 42.7368 3.28052C42.774 3.52283 42.5877 3.57875 42.4385 3.67195Z" fill="white"/>
<path d="M77.5551 39.4034C77.5178 38.2291 76.7723 37.8563 75.7471 37.7445C75.5607 37.7258 75.3929 37.614 75.1506 37.5394C76.94 37.3903 77.6669 36.3838 77.7042 34.7435C77.7042 34.6317 77.7788 34.5199 77.872 34.2589C77.9838 34.7808 78.1143 35.1722 78.1516 35.5637C78.2075 36.7007 78.8039 37.2598 79.9223 37.3344C80.1087 37.3344 80.2951 37.4462 80.5001 37.5208C80.2205 37.7445 79.885 37.8004 79.5868 37.8377C78.5803 37.9495 78.1516 38.5087 78.1329 39.4779C78.1329 39.7016 78.0211 39.9439 77.9652 40.1676C77.7974 40.2608 77.7601 40.1117 77.6669 40.0185C77.6669 39.9625 77.6669 39.9253 77.6483 39.8693C77.6669 39.7016 77.6297 39.5525 77.5365 39.4034H77.5551Z" fill="white"/>
<path d="M12.2054 52.1158C12.019 52.3022 11.8327 52.5072 11.6649 52.6936C10.9566 52.6936 10.2483 52.7868 9.83824 53.4578C9.46546 54.0729 9.4841 54.688 10.006 55.2472C10.006 55.3777 9.98736 55.4895 9.80096 55.4149C8.66396 54.7066 8.66396 53.0664 9.85688 52.2649C10.3042 51.9667 10.3788 51.743 10.1738 51.2584C9.83824 50.4942 9.87552 49.5063 10.2669 48.5557C10.3974 50.1586 10.9193 51.3702 12.2054 52.0971V52.1158Z" fill="white"/>
<path d="M28.9808 96.179C29.1113 96.4213 29.279 96.6263 29.5959 96.6449C29.1113 96.9618 28.6826 97.316 28.4216 97.8565C28.2539 98.2106 28.1793 98.5648 28.4776 98.9003C28.7758 99.2358 29.0927 99.0121 29.4095 98.9003C29.2604 99.59 28.7758 99.9255 28.142 99.7763C27.471 99.6272 27.061 98.9749 27.2287 98.3038C27.471 97.3346 28.142 96.6822 28.9808 96.2162V96.179Z" fill="white"/>
<path d="M52.1495 97.0736C52.5782 96.7754 52.2613 96.4585 52.1495 96.1603C52.8578 96.589 53.4729 97.1109 53.7898 97.9124C54.1066 98.7139 53.8643 99.3849 53.1933 99.6831C52.5596 99.9627 52.0563 99.7204 51.5903 98.8816C51.9818 98.9003 52.4291 99.3476 52.7273 98.8071C52.9696 98.3411 52.8019 97.8937 52.485 97.5023C52.3732 97.3718 52.2613 97.2414 52.1495 97.0922V97.0736Z" fill="white"/>
<path d="M33.1375 38.2107C33.5848 38.0056 34.0321 38.4157 34.4795 38.1734C34.5168 38.1548 34.6472 38.192 34.6845 38.2479C35.0014 38.7885 35.6351 39.2172 36.157 39.3104C36.6044 39.3849 36.2502 39.8323 36.4366 40.0373C35.4301 39.2731 34.2372 38.8071 33.1375 38.2107Z" fill="white"/>
<path d="M24.4517 23.5601C23.8552 23.2805 24.3212 24.0448 24.0043 24.0261C23.557 23.1501 23.1096 22.274 22.6623 21.3793C22.7182 21.3421 22.7741 21.3048 22.83 21.2861C23.5197 21.9199 24.0043 22.7214 24.4517 23.5601Z" fill="white"/>
<path d="M14.7777 31.9291C14.6472 32.246 14.2372 31.5936 14.1813 32.1155C13.8271 31.2581 13.3052 30.5125 12.6528 29.8601C12.7833 29.7297 12.9138 29.7669 13.0629 29.8229C13.883 30.3261 14.4608 31.0344 14.7777 31.9477V31.9291Z" fill="white"/>
<path d="M28.7201 55.9737C28.9251 55.8432 29.2047 55.7873 29.2979 55.5077C29.6893 56.0855 30.1739 56.4397 30.9754 56.0855C30.2112 57.1293 29.3538 57.0361 28.7014 55.9737H28.7201Z" fill="white"/>
<path d="M70.8449 51.4074C70.7517 51.1092 70.4908 51.0533 70.2671 50.9228C70.6213 50.2332 70.7517 49.4876 70.9009 48.537C71.2177 49.6367 71.3109 50.5314 70.8449 51.4074Z" fill="white"/>
<path d="M44.9547 17.7258C45.3275 17.9494 45.7003 17.8376 46.0731 17.7817C46.2781 17.7444 46.4645 17.6885 46.5764 17.9122C46.7068 18.1545 46.6323 18.3222 46.4459 18.49C45.9426 17.9122 45.3834 17.8562 44.7497 18.3968C44.582 18.0613 44.8056 17.9122 44.9361 17.7258H44.9547Z" fill="white"/>
<path d="M17.7228 57.6513C17.8906 57.5954 18.0211 57.4649 18.0956 57.2972C18.3752 57.7072 18.8039 57.8191 19.2885 57.875C18.6921 58.2851 18.1888 58.1732 17.7415 57.6513H17.7228Z" fill="white"/>
<path d="M37.0517 12.1903C36.7908 12.414 36.9585 12.7308 36.884 12.9918C36.5858 12.3394 36.5298 11.6311 36.6976 10.9042C36.8094 11.3329 36.9399 11.7616 37.0517 12.1903Z" fill="white"/>
<path d="M36.3434 38.4903C35.6723 38.863 35.5046 38.3225 35.2623 37.9124C35.6723 38.0243 36.0265 38.2107 36.3434 38.4903Z" fill="white"/>
<path d="M30.4722 96.3281C31.1991 95.8435 32.0192 96.0858 32.7834 96.0485C32.0192 96.1417 31.2364 96.2349 30.4722 96.3281Z" fill="white"/>
<path d="M62.7554 57.6142C62.8113 57.7447 62.8672 57.8565 62.9231 57.987C62.4758 58.2107 62.0657 58.2293 61.6557 57.8006C62.0471 57.6888 62.4571 57.9124 62.7554 57.6328V57.6142Z" fill="white"/>
<path d="M47.3594 24.5853C47.4339 24.8463 47.2475 25.1445 47.5271 25.3682C47.4712 25.6478 47.3966 25.9274 47.3407 26.2256C47.2103 25.6851 47.0425 25.1259 47.3407 24.604L47.3594 24.5853Z" fill="white"/>
<path d="M14.8336 53.1222C14.4422 53.1782 14.0135 53.0477 13.6966 53.3645C13.5289 53.1222 13.6966 52.9918 13.7525 52.8426C14.1253 52.8986 14.4981 52.9545 14.8523 53.1222H14.8336Z" fill="white"/>
<path d="M46.5019 17.4091C46.0919 17.6327 45.6632 17.5209 45.2531 17.4091C45.6632 17.1481 46.0919 17.1667 46.5019 17.4091Z" fill="white"/>
<path d="M13.268 42.3857C13.1189 42.5161 13.1748 42.7025 13.1375 42.8516C12.9138 42.5907 12.802 42.3111 12.6902 41.9383C13.0443 41.9383 13.1934 42.1247 13.268 42.3857Z" fill="white"/>
<path d="M33.622 25.797C33.7152 25.8529 33.8084 25.8902 33.9016 25.9461C33.8829 26.1697 34.0321 26.4307 33.7338 26.6544C33.5474 26.3748 33.622 26.0766 33.622 25.797Z" fill="white"/>
<path d="M16.4365 46.9897C16.4925 46.8406 16.567 46.6729 16.6229 46.5237C16.9771 46.561 17.033 46.8593 17.2194 47.1761C16.9025 47.1016 16.6602 47.0456 16.4365 46.9897Z" fill="white"/>
<path d="M16.6043 46.5239C16.1569 46.6544 15.691 46.6171 15.225 46.5798C15.6723 46.3748 16.1383 46.3002 16.6043 46.5239Z" fill="white"/>
<path d="M22.1216 34.3151C22.4385 34.7438 22.2148 35.2284 22.2707 35.6758C21.9352 35.5826 22.1775 35.3403 22.1589 35.1912C22.1216 34.9116 22.1402 34.6133 22.1216 34.3151Z" fill="white"/>
<path d="M31.8327 13.4015C32.0564 13.9047 32.0378 14.3894 31.8327 14.8926C31.8327 14.3894 31.8327 13.9047 31.8327 13.4015Z" fill="white"/>
<path d="M43.3144 13.8114C43.3144 13.9792 43.6872 13.8674 43.5381 14.0724C43.4263 14.2215 43.2772 14.4638 43.0162 14.2774C43.0535 14.0724 43.1653 13.9233 43.3144 13.7928V13.8114Z" fill="white"/>
<path d="M38.8784 48.9657C38.5429 49.1894 38.5615 48.7607 38.3938 48.6862C38.4497 48.5743 38.5056 48.4625 38.5615 48.332C38.6733 48.537 38.7665 48.7421 38.8784 48.9471V48.9657Z" fill="white"/>
<path d="M76.4367 36.1415C76.6977 36.2161 76.9586 36.2534 76.94 36.6448C76.6045 36.6261 76.5485 36.3279 76.4367 36.1415Z" fill="white"/>
<path d="M28.0863 55.3773C28.105 55.2282 28.0304 54.9673 28.2914 55.0046C28.5523 55.0418 28.5337 55.3214 28.5337 55.5451C28.4032 55.4519 28.3659 55.1164 28.0863 55.3773Z" fill="white"/>
<path d="M39.2698 33.2527C39.3071 33.4577 39.363 33.6627 39.2139 33.8864C38.9902 33.7373 38.9716 33.5136 38.9716 33.3086C39.0648 33.3086 39.1766 33.2899 39.2698 33.2713V33.2527Z" fill="white"/>
<path d="M47.8066 33.9796C47.6575 33.7745 47.6575 33.5695 47.8439 33.4204C47.9557 33.3272 47.993 33.5509 48.1048 33.5695C48.1048 33.7745 47.993 33.905 47.8066 33.9796Z" fill="white"/>
<path d="M77.704 39.9999C77.7972 40.0559 77.8904 40.0931 78.0022 40.1491C78.0022 40.3168 78.0022 40.4846 77.965 40.7082C77.6854 40.5032 77.6854 40.2422 77.704 39.9999Z" fill="white"/>
<path d="M42.4385 3.67195C42.5317 3.54147 42.6249 3.411 42.7368 3.28052C42.9045 3.28052 43.0536 3.33644 43.2027 3.52283C42.9418 3.57875 42.6995 3.63467 42.4572 3.69059L42.4385 3.67195Z" fill="white"/>
<path d="M76.828 38.3783C76.9026 38.7697 76.7162 38.8816 76.2875 38.9934C76.5298 38.7138 76.6789 38.5461 76.828 38.3783Z" fill="white"/>
<path d="M13.063 29.8043C12.9325 29.8043 12.7834 29.8416 12.6529 29.8416C12.5784 29.7857 12.4852 29.7298 12.4106 29.6738C12.392 29.5061 12.4293 29.4315 12.6157 29.5061C12.802 29.562 12.9698 29.6366 13.0816 29.8043H13.063Z" fill="white"/>
<path d="M42.5877 48.8161C42.4945 48.9652 42.3081 49.1516 42.2149 49.0584C42.0472 48.8907 42.2522 48.7415 42.4013 48.6111C42.4759 48.6856 42.5318 48.7415 42.6063 48.8161H42.5877Z" fill="white"/>
<path d="M13.6222 44.4736C13.7527 44.66 14.0136 44.8091 13.734 45.07C13.5663 44.9023 13.6036 44.6786 13.6222 44.4736Z" fill="white"/>
<path d="M17.0144 38.3412V38.8445C16.7721 38.7327 16.7162 38.5649 16.7162 38.3599C16.8094 38.3599 16.9026 38.3599 17.0144 38.3412Z" fill="white"/>
<path d="M12.597 29.5061C12.597 29.5061 12.4665 29.6179 12.3919 29.6738C12.1869 29.6179 12.0378 29.5061 11.9632 29.3011C12.2428 29.2079 12.4106 29.3756 12.597 29.5061Z" fill="white"/>
<path d="M31.8513 12.1718C31.8513 12.1718 31.7395 12.1905 31.6649 12.2091C31.5158 12.0973 31.4785 11.9482 31.5531 11.7618C31.7954 11.799 31.8699 11.9482 31.8513 12.1718Z" fill="white"/>
<path d="M73.3611 21.8079C73.1747 21.6029 72.9324 21.5843 72.9511 21.342C72.9511 21.3233 73.0256 21.2674 73.0629 21.2674C73.2866 21.3047 73.3611 21.4538 73.3611 21.8079Z" fill="white"/>
<path d="M58.1329 21.6214C58.0769 21.3605 58.1701 21.2114 58.487 21.1554C58.4311 21.3978 58.487 21.6587 58.1142 21.6214H58.1329Z" fill="white"/>
<path d="M42.1404 33.2714C42.1404 33.495 42.0845 33.6814 41.8981 33.8119C41.8049 33.6255 41.8235 33.4391 41.8794 33.2527C41.9726 33.2527 42.0658 33.2527 42.159 33.2527L42.1404 33.2714Z" fill="white"/>
<path d="M9.80096 55.4145C9.80096 55.4145 9.93144 55.3026 10.006 55.2467C10.1924 55.3213 10.4161 55.4517 10.2297 55.6195C10.0433 55.8059 9.93144 55.5263 9.80096 55.4145Z" fill="white"/>
<path d="M23.7245 8.96547C24.0973 8.87227 24.1905 9.04003 24.2278 9.43145C24.0041 9.22642 23.855 9.09595 23.7245 8.96547Z" fill="white"/>
<path d="M37.3314 12.9543C36.9959 12.7865 37.0332 12.4883 37.0518 12.2087C37.1823 12.451 37.3501 12.6747 37.3314 12.9543Z" fill="white"/>
<path d="M37.0332 89.8416C37.0704 90.1585 37.0518 90.4381 36.6604 90.494C36.7909 90.2703 36.9027 90.0467 37.0332 89.8416Z" fill="white"/>
<path d="M21.2456 9.31968C21.4692 9.04009 21.5252 8.77914 21.7116 8.87233C21.8979 8.96553 21.6743 9.05873 21.6184 9.11465C21.5811 9.15192 21.5065 9.17056 21.2456 9.31968Z" fill="white"/>
<path d="M71.0125 19.3475C70.7329 19.3475 70.677 19.1239 70.4906 18.9561C70.8447 18.8629 70.9566 19.0307 71.0125 19.3475Z" fill="white"/>
<path d="M73.678 18.6579C73.473 18.9002 73.3984 19.1425 73.0629 19.0866C73.1747 18.7884 73.3425 18.7138 73.678 18.6579Z" fill="white"/>
<path d="M47.7879 18.4156C47.7506 18.5461 47.6761 18.6207 47.5456 18.5834C47.3219 18.5275 47.3779 18.3411 47.3592 18.1733C47.5456 18.1733 47.5642 18.4715 47.7879 18.397V18.4156Z" fill="white"/>
<path d="M56.6229 33.2339C56.6229 33.2339 56.5297 33.0662 56.4738 32.973C56.5857 32.8611 56.7534 32.6934 56.8839 32.8611C56.9584 32.9543 56.772 33.1407 56.6229 33.2153V33.2339Z" fill="white"/>
<path d="M65.924 46.5614C65.663 46.5614 65.3648 46.6546 65.1411 46.4496C65.4207 46.4309 65.6817 46.4123 65.924 46.5614Z" fill="white"/>
<path d="M26.6137 39.7018C26.6137 39.7018 26.7815 39.6086 26.8747 39.5527C26.8747 39.7205 26.8747 39.8882 26.8747 40.0746C26.651 40.0374 26.651 39.851 26.6137 39.7018Z" fill="white"/>
<path d="M23.7805 43.262C23.9296 43.2807 24.0228 43.4298 23.9296 43.5043C23.7805 43.6535 23.5754 43.6162 23.4263 43.4484C23.5568 43.4111 23.7059 43.4111 23.7618 43.262H23.7805Z" fill="white"/>
<path d="M37.0889 13.7C37.6667 13.6255 37.238 14.0542 37.3312 14.2033C37.1821 14.0728 37.1262 13.8864 37.0889 13.7Z" fill="white"/>
<path d="M50.2111 56.1043C50.2111 56.1043 50.2111 56.2348 50.2111 56.2907C50.0061 56.2534 49.9501 56.067 49.8383 55.8993C50.0247 55.862 50.1552 55.9366 50.2297 56.1043H50.2111Z" fill="white"/>
<path d="M10.2296 21.1184C10.3228 21.2302 10.416 21.3048 10.4719 21.398C10.4906 21.4539 10.4719 21.6216 10.3415 21.5471C10.2483 21.4912 10.1737 21.398 10.1178 21.3048C10.1178 21.2861 10.1737 21.2116 10.2296 21.1184Z" fill="white"/>
<path d="M8.25403 21.1554C8.23539 21.5095 8.06763 21.5841 7.80668 21.5841C7.88124 21.3604 7.97444 21.2113 8.25403 21.1554Z" fill="white"/>
<path d="M10.267 19.0495C10.3788 19.0681 10.4534 19.124 10.3788 19.2359C10.3416 19.2918 10.267 19.385 10.2297 19.385C10.1365 19.385 10.0433 19.3104 10.062 19.18C10.062 19.0681 10.1738 19.0495 10.2856 19.0495H10.267Z" fill="white"/>
<path d="M57.2195 58.3971C57.089 58.4903 57.2195 58.7326 57.0145 58.7698C56.9958 58.7698 56.9399 58.6207 56.9213 58.5275C57.0145 58.4903 57.1263 58.4343 57.2195 58.3971Z" fill="white"/>
<path d="M77.555 39.4038C77.7041 39.5343 77.965 39.6275 77.6668 39.8698C77.5363 39.7393 77.5177 39.5902 77.555 39.4038Z" fill="white"/>
<path d="M55.4115 58.2107C55.6352 58.3039 55.7656 58.5462 56.0452 58.5835C55.7718 58.6083 55.5606 58.4841 55.4115 58.2107Z" fill="white"/>
</svg>
