<svg width="53" height="53" viewBox="0 0 53 53" fill="none" xmlns="http://www.w3.org/2000/svg">
<path d="M51.5 36.35C50.0472 36.35 48.5944 36.7694 47.3333 37.6111C46.0994 38.4338 44.6496 38.8728 43.1667 38.8728C41.6837 38.8728 40.2339 38.4338 39 37.6111C37.7661 36.7884 36.3163 36.3495 34.8333 36.3495C33.3503 36.3495 31.9005 36.7884 30.6667 37.6111C29.4328 38.4338 27.983 38.8728 26.5 38.8728C25.017 38.8728 23.5672 38.4338 22.3333 37.6111C21.0994 36.7884 19.6497 36.3495 18.1667 36.3495C16.6837 36.3495 15.2339 36.7884 14 37.6111C12.7661 38.4338 11.3163 38.8728 9.83333 38.8728C8.35035 38.8728 6.90055 38.4338 5.66667 37.6111C4.43294 36.7882 2.983 36.3493 1.5 36.35M18.1667 9.83333V15.3889M26.5 9.83333V15.3889M34.8333 9.83333V15.3889M18.1667 1.5H18.1944M26.5 1.5H26.5278M34.8333 1.5H34.8611M51.5 51.5V32.0556C51.5 30.5821 50.9147 29.1691 49.8728 28.1272C48.8309 27.0853 47.4179 26.5 45.9444 26.5H7.05556C5.58213 26.5 4.16905 27.0853 3.12718 28.1272C2.08532 29.1691 1.5 30.5821 1.5 32.0556V51.5H51.5ZM43.1667 26.5V20.9444C43.1667 19.471 42.5813 18.0579 41.5395 17.0161C40.4976 15.9742 39.0845 15.3889 37.6111 15.3889H15.3889C13.9155 15.3889 12.5024 15.9742 11.4605 17.0161C10.4186 18.0579 9.83333 19.471 9.83333 20.9444V26.5H43.1667Z" stroke="white" stroke-width="2" stroke-linecap="round" stroke-linejoin="round"/>
</svg>
